<svg xmlns:svg="http://www.w3.org/2000/svg" xmlns="http://www.w3.org/2000/svg">

  <symbol id="odontophrynidae" viewBox="0 0 200 200">
    <path d="m 176.462,75.991 c 4.458,-7.418 7.025,-13.909 7.197,-17.444 0.261,-5.393 8.229,-17.4 5.467,-19.069 -2.355,-1.421 -6.6,9.214 -8.524,8.605 -1.928,-0.608 3.091,-23.788 -0.798,-24.284 -3.889,-0.496 -5.589,24.387 -8.883,24.758 -3.295,0.373 -3.18,-10.074 -7.419,-11.166 -5.465,-1.406 1.726,14.664 -0.672,17.79 -2.399,3.126 -14.536,-6.962 -15.651,-3.432 -1.113,3.529 13.186,9.008 12.916,12.099 -0.27,3.093 -5.112,5.456 -11.146,8.2 -1.979,0.898 -3.657,-2.275 -5.352,-5.871 0.033,-0.126 0.063,-0.244 0.096,-0.37 C 146.806,54.096 142.381,43.856 136.384,32.6 129.425,19.538 115.788,0.688 99.855,0.688 c -15.932,0 -29.569,18.85 -36.527,31.912 -5.997,11.256 -10.422,21.496 -7.31,33.207 0.034,0.126 0.063,0.244 0.096,0.37 -1.694,3.596 -3.372,6.77 -5.351,5.871 -6.034,-2.744 -10.877,-5.106 -11.147,-8.2 -0.269,-3.091 14.03,-8.57 12.917,-12.099 -1.114,-3.53 -13.253,6.558 -15.651,3.432 -2.398,-3.126 4.793,-19.196 -0.672,-17.79 -4.239,1.091 -4.124,11.539 -7.419,11.166 -3.293,-0.372 -4.993,-25.254 -8.882,-24.758 -3.889,0.496 1.128,23.675 -0.798,24.284 -1.926,0.609 -6.171,-10.026 -8.524,-8.605 -2.762,1.668 5.206,13.676 5.465,19.069 0.172,3.535 2.74,10.026 7.198,17.444 4.458,7.417 21.936,22.274 25.771,22.123 2.46,-0.097 5.529,-2.211 8.95,-4.867 -1.03,3.874 -2.682,7.458 -4.531,12.013 -4.585,11.292 -7.619,17.523 1.43,34.661 -4.374,-0.056 -10.491,0.042 -12.139,0.941 -4.877,2.661 -3.89,5.828 -4.085,8.379 -0.078,1.022 -0.52,1.364 -1.152,1.156 -1.028,-0.338 -1.914,-1.121 -4.682,-3.625 -2.475,-2.236 -11.855,-12.885 -12.846,-13.634 -2.216,-1.678 -3.607,-1.06 -2.484,2.083 1.123,3.142 12.077,19.726 11.886,21.22 -0.19,1.472 -0.899,2.111 -1.881,1.947 -1.015,-0.17 -3.035,-0.787 -4.438,-2.021 -2.544,-2.24 -4.257,-0.457 -1.458,2.757 6.477,7.437 21.542,35.446 35.007,38.588 13.464,3.142 27.826,3.366 29.396,-1.347 0.947,-2.841 1.975,-4.958 2.74,-8.398 2.981,2.189 8.322,3.803 11.121,3.803 2.8,0 8.141,-1.614 11.122,-3.803 0.767,3.44 1.793,5.557 2.739,8.398 1.57,4.713 15.934,4.489 29.397,1.347 13.464,-3.143 28.53,-31.151 35.007,-38.588 2.8,-3.214 1.087,-4.997 -1.458,-2.757 -1.403,1.234 -3.423,1.852 -4.438,2.021 -0.981,0.164 -1.69,-0.475 -1.881,-1.947 -0.19,-1.494 10.764,-18.078 11.886,-21.22 1.122,-3.142 -0.268,-3.76 -2.484,-2.083 -0.99,0.749 -10.37,11.398 -12.845,13.634 -2.769,2.503 -3.655,3.286 -4.683,3.625 -0.631,0.208 -1.073,-0.134 -1.152,-1.156 -0.195,-2.552 0.792,-5.718 -4.085,-8.379 -1.647,-0.899 -7.765,-0.997 -12.139,-0.941 9.049,-17.138 6.015,-23.369 1.429,-34.661 -1.849,-4.554 -3.502,-8.139 -4.531,-12.013 3.422,2.656 6.491,4.771 8.951,4.867 3.834,0.152 21.313,-14.706 25.772,-22.123 z"
    />
  </symbol>

  <symbol id="hand" viewBox="0 0 200 200">
    <path d="m 100.559,199.168 c 9.307,-0.723 30.588,3.548 40.166,-8.5 4.425,-5.568 8.65,-21.935 11.739,-32.748 3.09,-10.813 5.252,-31.203 7.106,-37.69 1.854,-6.488 18.227,-29.349 21.935,-34.91 3.707,-5.561 9.586,-14.796 9.609,-20.699 0.032,-8.341 -7.901,-10.228 -11.851,-6.646 -2.976,2.698 -9.807,13.133 -12.278,17.458 -2.472,4.325 -17.918,25.333 -21.935,28.422 -4.017,3.089 -5.561,0.927 -6.179,-3.708 -0.618,-4.634 5.87,-19.772 8.341,-29.967 2.472,-10.195 3.398,-13.593 3.398,-13.593 0,0 0,0 1.854,-9.268 1.854,-9.269 3.255,-15.588 4.635,-21.935 1.545,-7.105 -11.431,-13.593 -15.708,-4.004 -3.201,7.175 -7.033,22.541 -7.033,22.541 -2.042,6.488 -4.754,14.52 -6.608,20.081 -1.854,5.561 -6.936,24.206 -7.724,26.568 -1.235,3.708 -8.341,2.163 -8.959,-2.163 -0.309,-2.162 -0.309,-20.081 -0.927,-28.422 -0.618,-8.342 -2.163,-16.683 -3.089,-25.951 -0.926,-9.268 0.622,-20.661 0,-26.877 -0.927,-9.268 -15.138,-9.268 -16.992,0 -0.824,4.12 -1.545,20.081 -1.442,25.024 0.103,4.943 -0.412,18.536 -0.412,27.805 0,9.268 0.723,25.771 0.375,27.814 -0.684,4.006 -5.009,4.933 -7.48,3.08 C 78.629,89.026 73.995,67.092 71.214,60.604 68.433,54.117 62.726,33.472 60.4,26.93 55.457,13.028 39.701,20.442 41.878,30.636 c 1.163,5.447 5.488,25.833 7.092,33.367 1.604,7.533 11.74,32.748 11.74,38.617 0,5.869 0.121,12.62 0.323,17.412 0.294,6.995 -3.413,14.409 -3.413,14.409 0,0 -5.561,-4.017 -12.357,-15.138 -6.797,-11.122 -14.521,-20.488 -25.951,-20.39 -8.392,0.072 -11.74,4.943 -7.415,8.959 4.325,4.016 14.211,25.024 14.211,25.024 0,0 9.268,11.74 12.357,23.633 2.611,10.051 18.026,27.879 25.024,33.817 14.212,12.061 24.407,9.806 37.07,8.822 z" />
  </symbol>

  <symbol id="bufonidae" viewBox="0 0 200 200">
    <path d="m 100.61469,0.75652066 c -7.44557,0 -12.101296,7.63254254 -14.460494,9.84669834 -3.464156,3.251201 -6.653852,4.513377 -11.13749,8.706654 -4.840735,4.526357 -4.661706,12.664145 -5.71599,16.028987 -1.054264,3.362677 -2.512339,4.724312 -5.779592,17.49885 -3.266279,12.77471 -1.588365,15.606352 -5.396702,20.797153 -3.808325,5.190801 -5.45239,6.291771 -7.286431,4.701454 -1.236287,-1.071167 -2.305503,-2.938034 -3.310041,-4.912389 1.052301,-0.430651 2.468608,-0.879221 4.71441,-1.212301 3.80037,-0.563927 3.550723,-2.862528 -0.476417,-4.945269 -3.567638,-1.845871 -6.52855,-2.339219 -4.461769,-7.365883 1.588376,-3.861135 3.218535,-6.797162 5.39868,-10.468212 1.879804,-3.162874 -0.135269,-4.078857 -2.97087,-2.000131 -3.058382,2.241793 -3.730728,2.993785 -4.704473,3.841222 -1.907619,1.658864 -2.808731,0.501218 -2.695348,-2.450721 0.124456,-3.269252 0.376977,-6.155576 0.496305,-11.100845 0.07057,-2.945918 -0.0092,-9.67345 -0.641518,-12.122151 -0.824508,-3.203479 -3.357751,-2.530241 -3.725753,0.711228 -0.402806,3.552616 -1.59138,13.808045 -2.093643,15.786242 -0.345117,1.35469 -1.832032,2.635709 -2.845552,-0.446562 -0.868271,-2.642641 -1.610247,-5.276329 -2.786871,-7.98168 -0.566916,-1.300932 -3.386584,-1.786264 -3.344815,0.952891 0.02086,1.364566 0.756882,2.788726 1.465036,5.507045 0.868271,3.325927 0.279472,4.882427 0.289433,10.169729 0.0092,5.286377 -1.707723,12.009882 -1.507805,14.822549 0.201901,2.813737 0.625607,8.746494 7.163095,16.762915 2.562075,3.142948 6.409204,10.923742 9.382053,17.245462 -0.123374,0.34713 -0.251634,0.710158 -0.384921,1.106994 -3.651167,10.83511 -4.560218,11.88436 -3.719785,20.18428 0.801625,7.92409 4.087811,22.38545 6.695637,29.07824 -1.181589,0.0927 -2.210981,0.26543 -3.039488,0.53705 -2.025025,0.66229 -4.156454,1.40238 -6.005406,2.44468 -2.95596,-3.5248 -6.370405,-7.0626 -8.022438,-8.40338 -2.12644,-1.72465 -4.02712,-2.80076 -5.614523,-1.43126 -1.084105,0.93792 -0.497271,2.80278 0.866304,4.67567 1.066224,1.46399 3.417465,4.32158 4.886483,6.42811 1.277051,1.82903 1.910601,3.03655 2.984786,4.75319 -0.264557,1.23331 -0.285438,2.65067 0.01388,4.29858 0.153176,0.8465 0.363015,1.68389 0.601724,2.51542 -2.436757,0.10814 -5.569776,0.29539 -4.470733,2.5571 1.297961,2.67446 5.3768,5.70205 8.615227,9.71126 3.237425,4.01016 11.731298,11.88637 16.253742,15.80509 4.521434,3.91781 8.126875,5.31911 11.468725,5.63351 3.341836,0.31422 12.201747,0.41862 16.238826,0.12967 4.037064,-0.28953 7.103423,-1.24535 11.009191,-3.36887 3.904803,-2.12443 6.217269,-1.30278 8.052301,-1.43404 1.83503,0.13126 4.14648,-0.68931 8.05227,1.43404 3.90479,2.12352 6.97216,3.08042 11.00919,3.36887 4.03712,0.28937 12.897,0.18575 16.23884,-0.12967 3.34284,-0.3144 6.94727,-1.7157 11.46872,-5.63351 4.52246,-3.91872 13.01633,-11.79493 16.25475,-15.80509 3.2374,-4.00921 7.31725,-7.03774 8.6162,-9.71126 1.09804,-2.26171 -2.03495,-2.44979 -4.47173,-2.5571 0.23971,-0.83045 0.44955,-1.66892 0.60274,-2.51542 0.29938,-1.64791 0.2785,-3.06527 0.0139,-4.29858 1.07418,-1.71771 1.70876,-2.92416 2.9858,-4.75319 1.46902,-2.10653 3.81925,-4.96412 4.88647,-6.42811 1.3646,-1.87289 1.9504,-3.73775 0.86631,-4.67567 -1.58641,-1.3695 -3.48708,-0.29339 -5.61454,1.43126 -1.65202,1.34078 -5.06647,4.87858 -8.02241,8.40338 -1.84895,-1.0423 -3.98041,-1.78239 -6.0054,-2.44468 -0.82951,-0.27162 -1.85892,-0.44364 -3.03949,-0.53705 2.60783,-6.69279 5.89398,-21.15523 6.69564,-29.07824 0.84044,-8.30086 -0.0685,-9.35009 -3.7198,-20.18428 -0.13341,-0.395911 -0.2606,-0.759864 -0.38393,-1.106994 2.97189,-6.32172 6.81997,-14.102514 9.38105,-17.245462 6.53852,-8.016421 6.9622,-13.949178 7.16311,-16.762915 0.20191,-2.812667 -1.51675,-9.535247 -1.5078,-14.822549 0.009,-5.287302 -0.57885,-6.843802 0.28841,-10.169729 0.70818,-2.718319 1.44418,-4.142479 1.4651,-5.507045 0.0417,-2.739155 -2.77694,-2.253823 -3.34487,-0.952891 -1.17761,2.705351 -1.91859,5.339039 -2.78787,7.98168 -1.01348,3.082271 -2.50042,1.801252 -2.84455,0.446562 -0.50426,-1.977273 -1.69183,-12.233626 -2.09463,-15.786242 -0.367,-3.241469 -2.90123,-3.914707 -3.72576,-0.711228 -0.63057,2.448701 -0.71212,9.177158 -0.6415,12.122151 0.12043,4.946193 0.37197,7.831593 0.49629,11.100845 0.11237,2.951939 -0.78771,4.109585 -2.69535,2.450721 -0.97273,-0.847437 -1.64609,-1.599429 -4.70447,-3.841222 -2.83659,-2.078726 -4.84965,-1.162743 -2.97086,2.000131 2.18015,3.67105 3.81031,6.607077 5.39867,10.468212 2.06778,5.026664 -0.89314,5.520012 -4.46174,7.365883 -4.02715,2.081803 -4.27579,4.380272 -0.47644,4.945269 2.2468,0.33308 3.6621,0.78272 4.7154,1.212301 -1.00455,1.974355 -2.07376,3.841222 -3.31003,4.912389 -1.83503,1.590317 -3.47811,0.489347 -7.28643,-4.701454 -3.8083,-5.190801 -2.13043,-8.021519 -5.39669,-20.797153 -3.26724,-12.774538 -4.72534,-14.135248 -5.77962,-17.49885 -1.05527,-3.363759 -0.87623,-11.50156 -5.71595,-16.028987 -4.48367,-4.194202 -7.67334,-5.455453 -11.13854,-8.706654 -2.35617,-2.2141558 -7.0109,-9.84669834 -14.45647,-9.84669834 z" />
  </symbol>


  <symbol id="dendrobatidae" viewBox="0 0 200 200">
    <path d="m 100.15635,0.01737897 c 11.34471,0 15.93437,14.46989403 21.24816,18.41193803 2.37087,1.758537 6.54557,5.679416 7.8005,9.999151 1.36367,4.698417 -0.008,9.576124 -1.38489,13.015581 -1.01015,2.524959 -0.0464,13.297574 0.69798,22.596729 0.0697,0.865165 0.18044,1.864247 0.31024,2.92077 7.38051,0.248571 18.85111,1.249899 20.87047,1.431169 3.57745,0.320136 4.6934,-0.16711 4.6934,-0.16711 0,0 -0.97697,-3.55731 -0.41801,-8.647502 0.47743,-4.357002 0.45424,-6.195059 0.0114,-8.73414 -0.15112,-0.857096 -0.31404,-1.339507 -1.28914,-1.819938 -2.60756,-1.282103 -7.17001,-1.999229 -10.97007,0.0906 -2.37589,1.307302 -4.93004,3.257198 -6.06613,0.652642 -0.73322,-1.681948 -0.5207,-3.008397 2.97517,-3.593549 2.66497,-0.445144 5.33595,-2.097934 7.08843,-2.734436 2.16135,-0.786597 3.17254,-2.602538 1.49866,-3.904777 -1.67391,-1.302278 -6.5214,-3.807099 -8.85801,-3.526096 -2.40714,0.290064 -2.70326,-1.518797 -2.03044,-3.64391 0.52775,-1.664857 3.62579,-1.31031 4.7538,-0.205557 2.2188,2.173457 5.04086,3.182664 7.61215,3.289402 2.22987,0.0925 2.23189,-3.068809 1.76756,-5.39335 -0.51165,-2.559219 -4.89983,-9.73425 -6.38844,-10.850194 -1.48857,-1.115945 -2.56222,-2.824082 -1.70208,-4.679269 0.9427,-2.032461 4.2774,-0.97293 4.9935,1.468436 0.56502,1.922678 7.07633,11.586429 8.18321,12.866514 0.68789,0.794667 3.18868,0.730221 3.71441,-0.250855 0.79162,-1.477496 2.13018,-2.820047 1.62458,-5.563581 -0.49653,-2.688111 1.01119,-3.610679 2.40711,-3.03257 2.07273,0.859112 0.61237,4.868647 0.40989,6.354213 -0.43406,3.177601 -1.96295,6.229318 -1.43318,10.291194 0.56201,4.311664 2.36481,6.510321 3.1615,10.227775 0.89938,4.197848 2.62465,18.657693 2.10497,24.410615 -0.61739,6.833617 -1.36169,8.878144 -6.01074,9.2518 -3.91083,0.314045 -21.41836,1.75751 -30.14043,2.138247 1.48359,8.049256 3.11921,16.191165 3.88365,20.690149 1.74643,10.2781 -2.67304,26.22252 -8.49543,34.20733 6.12757,-2.84422 11.22686,-3.88666 17.84091,-3.94707 9.47137,-0.0845 16.05923,2.53501 19.59941,4.37208 4.35194,2.25907 5.89693,8.21747 3.56736,13.09618 l 1.46242,-1.65176 c 0,0 10.80988,-13.83543 11.36786,-16.08745 0.31709,-1.27807 0.56703,-2.99428 1.4644,-4.11426 1.0223,-1.27506 3.69126,-2.93287 5.11741,-1.09478 1.11796,1.44328 1.33147,4.67326 9.9e-4,5.73682 -1.00011,0.79966 -2.22584,1.17331 -3.44449,2.26208 -1.94985,1.73935 -8.75024,13.25934 -12.83225,18.96997 0,0 -5.18791,5.92109 -4.9291,6.97461 0.12981,0.53178 0.0826,1.67589 1.86025,1.35763 0.59022,-0.10583 5.3007,-1.70613 6.30888,-3.60262 1.24483,-2.34265 4.49899,-2.82108 5.26849,-0.68385 0.62744,1.74339 -1.25595,3.76575 -3.24007,4.28848 -2.10193,0.55497 -4.97439,2.04658 -5.89593,2.47562 -2.78986,1.30126 -7.83472,3.88362 -10.99622,8.5327 -3.1615,4.64909 -14.31987,10.97303 -18.78262,15.06414 -4.46374,4.09111 -23.79928,10.04042 -27.33946,10.04244 -8.36851,0.004 -8.36851,-2.79086 -7.81054,-6.5093 0.55793,-3.71947 4.65007,-10.59937 7.81054,-13.01759 2.15835,-1.64975 5.87279,-5.98155 9.25687,-9.16014 -1.84415,0.19832 -4.19888,0.41191 -7.21131,0.60528 -8.74119,0.55797 -11.70025,0.24781 -15.04804,0.24781 -3.347821,0 -6.346131,0.311 -15.087314,-0.24781 -3.012433,-0.19223 -5.367161,-0.40589 -7.211308,-0.60528 3.384071,3.17859 7.099508,7.51039 9.256863,9.16014 3.1615,2.41822 7.252572,9.29812 7.810544,13.01759 0.557972,3.71844 0.557972,6.51436 -7.810544,6.5093 -3.54018,-0.002 -22.875715,-5.95232 -27.339492,-10.04244 -4.463549,-4.09111 -15.621926,-10.41506 -18.782397,-15.06415 -3.1615,-4.64908 -8.207383,-7.23144 -10.996254,-8.53269 -0.92253,-0.42904 -3.794994,-1.92168 -5.895936,-2.47562 -1.985106,-0.52273 -3.86751,-2.5451 -3.240029,-4.28849 0.769467,-2.13722 4.023619,-1.6588 5.268455,0.68386 1.008179,1.89649 5.717672,3.49686 6.308876,3.60261 1.777647,0.31823 1.729303,-0.82584 1.86025,-1.35762 0.259991,-1.05249 -4.928069,-6.97462 -4.928069,-6.97462 -4.082012,-5.70964 -10.883387,-17.23061 -12.832255,-18.96996 -1.218684,-1.08877 -2.444411,-1.46242 -3.44452,-2.26208 -1.330447,-1.06356 -1.116934,-4.29354 10e-4,-5.73682 1.425117,-1.83809 4.095108,-0.18043 5.117372,1.09478 0.898396,1.11998 1.147196,2.83619 1.464438,4.11426 0.557973,2.25202 11.367855,16.08745 11.367855,16.08745 l 1.462421,1.65175 c -2.329604,-4.8787 -0.784579,-10.8371 3.56835,-13.09617 3.540218,-1.83707 10.128043,-4.4567 19.599446,-4.37208 6.613024,0.0605 11.713304,1.10285 17.84091,3.94707 -5.822431,-7.98481 -10.241861,-23.92923 -8.495429,-34.20733 0.764405,-4.498984 2.400065,-12.640893 3.883613,-20.690149 -8.722036,-0.380737 -26.229601,-1.825001 -30.140392,-2.138247 -4.650073,-0.372666 -5.393388,-2.418183 -6.010782,-9.2518 -0.519677,-5.753912 1.206618,-20.212767 2.104977,-24.410615 0.796684,-3.717454 2.599492,-5.916111 3.161499,-10.227775 0.529765,-4.060886 -0.999119,-7.113593 -1.433186,-10.291194 -0.202512,-1.485566 -1.66284,-5.495101 0.409895,-6.354213 1.395958,-0.578109 2.903678,0.344497 2.407144,3.03257 -0.505593,2.744523 0.833913,4.086085 1.624545,5.563581 0.524741,0.981 3.026517,1.045446 3.714409,0.250855 1.105895,-1.280085 7.618196,-10.943836 8.18321,-12.866514 0.717127,-2.440339 4.050837,-3.499907 4.993543,-1.468436 0.860102,1.855187 -0.213551,3.563324 -1.702124,4.679269 -1.488572,1.115944 -5.876788,8.290975 -6.388434,10.850194 -0.464292,2.324541 -0.463302,5.486002 1.767559,5.39335 2.571323,-0.106585 5.393388,-1.115945 7.612143,-3.289402 1.12805,-1.104829 4.226093,-1.460366 4.753841,0.205557 0.672779,2.125113 0.376854,3.933974 -2.030443,3.64391 -2.337636,-0.280927 -7.185119,2.223818 -8.858008,3.526096 -1.673916,1.302239 -0.663719,3.11818 1.498661,3.904777 1.752446,0.63753 4.423465,2.289292 7.088431,2.734436 3.495833,0.585152 3.708356,1.911601 2.975128,3.593549 -1.135054,2.604556 -3.690237,0.65466 -6.066129,-0.652642 -3.79903,-2.089864 -8.362502,-1.372738 -10.970026,-0.0906 -0.975938,0.480431 -1.139127,0.962842 -1.289183,1.819938 -0.444155,2.539081 -0.467337,4.378166 0.01142,8.73414 0.557972,5.09122 -0.418993,8.647502 -0.418993,8.647502 0,0 1.115944,0.487474 4.693391,0.16711 2.019366,-0.181194 13.48996,-1.182407 20.870472,-1.431169 0.129805,-1.056523 0.240578,-2.055605 0.310238,-2.92077 0.744268,-9.298127 1.708138,-20.07177 0.697941,-22.596729 -1.376772,-3.439457 -2.74852,-8.317164 -1.383815,-13.015581 1.254924,-4.319735 5.429627,-8.240614 7.800495,-9.999151 C 84.21772,14.487273 88.807381,0.01737897 100.15307,0.01737897" />
  </symbol>
  
  <symbol id="aromobatidae" viewBox="0 0 200 200">
    <path d="m 100.15635,0.01737897 c 11.34471,0 15.93437,14.46989403 21.24816,18.41193803 2.37087,1.758537 6.54557,5.679416 7.8005,9.999151 1.36367,4.698417 -0.008,9.576124 -1.38489,13.015581 -1.01015,2.524959 -0.0464,13.297574 0.69798,22.596729 0.0697,0.865165 0.18044,1.864247 0.31024,2.92077 7.38051,0.248571 18.85111,1.249899 20.87047,1.431169 3.57745,0.320136 4.6934,-0.16711 4.6934,-0.16711 0,0 -0.97697,-3.55731 -0.41801,-8.647502 0.47743,-4.357002 0.45424,-6.195059 0.0114,-8.73414 -0.15112,-0.857096 -0.31404,-1.339507 -1.28914,-1.819938 -2.60756,-1.282103 -7.17001,-1.999229 -10.97007,0.0906 -2.37589,1.307302 -4.93004,3.257198 -6.06613,0.652642 -0.73322,-1.681948 -0.5207,-3.008397 2.97517,-3.593549 2.66497,-0.445144 5.33595,-2.097934 7.08843,-2.734436 2.16135,-0.786597 3.17254,-2.602538 1.49866,-3.904777 -1.67391,-1.302278 -6.5214,-3.807099 -8.85801,-3.526096 -2.40714,0.290064 -2.70326,-1.518797 -2.03044,-3.64391 0.52775,-1.664857 3.62579,-1.31031 4.7538,-0.205557 2.2188,2.173457 5.04086,3.182664 7.61215,3.289402 2.22987,0.0925 2.23189,-3.068809 1.76756,-5.39335 -0.51165,-2.559219 -4.89983,-9.73425 -6.38844,-10.850194 -1.48857,-1.115945 -2.56222,-2.824082 -1.70208,-4.679269 0.9427,-2.032461 4.2774,-0.97293 4.9935,1.468436 0.56502,1.922678 7.07633,11.586429 8.18321,12.866514 0.68789,0.794667 3.18868,0.730221 3.71441,-0.250855 0.79162,-1.477496 2.13018,-2.820047 1.62458,-5.563581 -0.49653,-2.688111 1.01119,-3.610679 2.40711,-3.03257 2.07273,0.859112 0.61237,4.868647 0.40989,6.354213 -0.43406,3.177601 -1.96295,6.229318 -1.43318,10.291194 0.56201,4.311664 2.36481,6.510321 3.1615,10.227775 0.89938,4.197848 2.62465,18.657693 2.10497,24.410615 -0.61739,6.833617 -1.36169,8.878144 -6.01074,9.2518 -3.91083,0.314045 -21.41836,1.75751 -30.14043,2.138247 1.48359,8.049256 3.11921,16.191165 3.88365,20.690149 1.74643,10.2781 -2.67304,26.22252 -8.49543,34.20733 6.12757,-2.84422 11.22686,-3.88666 17.84091,-3.94707 9.47137,-0.0845 16.05923,2.53501 19.59941,4.37208 4.35194,2.25907 5.89693,8.21747 3.56736,13.09618 l 1.46242,-1.65176 c 0,0 10.80988,-13.83543 11.36786,-16.08745 0.31709,-1.27807 0.56703,-2.99428 1.4644,-4.11426 1.0223,-1.27506 3.69126,-2.93287 5.11741,-1.09478 1.11796,1.44328 1.33147,4.67326 9.9e-4,5.73682 -1.00011,0.79966 -2.22584,1.17331 -3.44449,2.26208 -1.94985,1.73935 -8.75024,13.25934 -12.83225,18.96997 0,0 -5.18791,5.92109 -4.9291,6.97461 0.12981,0.53178 0.0826,1.67589 1.86025,1.35763 0.59022,-0.10583 5.3007,-1.70613 6.30888,-3.60262 1.24483,-2.34265 4.49899,-2.82108 5.26849,-0.68385 0.62744,1.74339 -1.25595,3.76575 -3.24007,4.28848 -2.10193,0.55497 -4.97439,2.04658 -5.89593,2.47562 -2.78986,1.30126 -7.83472,3.88362 -10.99622,8.5327 -3.1615,4.64909 -14.31987,10.97303 -18.78262,15.06414 -4.46374,4.09111 -23.79928,10.04042 -27.33946,10.04244 -8.36851,0.004 -8.36851,-2.79086 -7.81054,-6.5093 0.55793,-3.71947 4.65007,-10.59937 7.81054,-13.01759 2.15835,-1.64975 5.87279,-5.98155 9.25687,-9.16014 -1.84415,0.19832 -4.19888,0.41191 -7.21131,0.60528 -8.74119,0.55797 -11.70025,0.24781 -15.04804,0.24781 -3.347821,0 -6.346131,0.311 -15.087314,-0.24781 -3.012433,-0.19223 -5.367161,-0.40589 -7.211308,-0.60528 3.384071,3.17859 7.099508,7.51039 9.256863,9.16014 3.1615,2.41822 7.252572,9.29812 7.810544,13.01759 0.557972,3.71844 0.557972,6.51436 -7.810544,6.5093 -3.54018,-0.002 -22.875715,-5.95232 -27.339492,-10.04244 -4.463549,-4.09111 -15.621926,-10.41506 -18.782397,-15.06415 -3.1615,-4.64908 -8.207383,-7.23144 -10.996254,-8.53269 -0.92253,-0.42904 -3.794994,-1.92168 -5.895936,-2.47562 -1.985106,-0.52273 -3.86751,-2.5451 -3.240029,-4.28849 0.769467,-2.13722 4.023619,-1.6588 5.268455,0.68386 1.008179,1.89649 5.717672,3.49686 6.308876,3.60261 1.777647,0.31823 1.729303,-0.82584 1.86025,-1.35762 0.259991,-1.05249 -4.928069,-6.97462 -4.928069,-6.97462 -4.082012,-5.70964 -10.883387,-17.23061 -12.832255,-18.96996 -1.218684,-1.08877 -2.444411,-1.46242 -3.44452,-2.26208 -1.330447,-1.06356 -1.116934,-4.29354 10e-4,-5.73682 1.425117,-1.83809 4.095108,-0.18043 5.117372,1.09478 0.898396,1.11998 1.147196,2.83619 1.464438,4.11426 0.557973,2.25202 11.367855,16.08745 11.367855,16.08745 l 1.462421,1.65175 c -2.329604,-4.8787 -0.784579,-10.8371 3.56835,-13.09617 3.540218,-1.83707 10.128043,-4.4567 19.599446,-4.37208 6.613024,0.0605 11.713304,1.10285 17.84091,3.94707 -5.822431,-7.98481 -10.241861,-23.92923 -8.495429,-34.20733 0.764405,-4.498984 2.400065,-12.640893 3.883613,-20.690149 -8.722036,-0.380737 -26.229601,-1.825001 -30.140392,-2.138247 -4.650073,-0.372666 -5.393388,-2.418183 -6.010782,-9.2518 -0.519677,-5.753912 1.206618,-20.212767 2.104977,-24.410615 0.796684,-3.717454 2.599492,-5.916111 3.161499,-10.227775 0.529765,-4.060886 -0.999119,-7.113593 -1.433186,-10.291194 -0.202512,-1.485566 -1.66284,-5.495101 0.409895,-6.354213 1.395958,-0.578109 2.903678,0.344497 2.407144,3.03257 -0.505593,2.744523 0.833913,4.086085 1.624545,5.563581 0.524741,0.981 3.026517,1.045446 3.714409,0.250855 1.105895,-1.280085 7.618196,-10.943836 8.18321,-12.866514 0.717127,-2.440339 4.050837,-3.499907 4.993543,-1.468436 0.860102,1.855187 -0.213551,3.563324 -1.702124,4.679269 -1.488572,1.115944 -5.876788,8.290975 -6.388434,10.850194 -0.464292,2.324541 -0.463302,5.486002 1.767559,5.39335 2.571323,-0.106585 5.393388,-1.115945 7.612143,-3.289402 1.12805,-1.104829 4.226093,-1.460366 4.753841,0.205557 0.672779,2.125113 0.376854,3.933974 -2.030443,3.64391 -2.337636,-0.280927 -7.185119,2.223818 -8.858008,3.526096 -1.673916,1.302239 -0.663719,3.11818 1.498661,3.904777 1.752446,0.63753 4.423465,2.289292 7.088431,2.734436 3.495833,0.585152 3.708356,1.911601 2.975128,3.593549 -1.135054,2.604556 -3.690237,0.65466 -6.066129,-0.652642 -3.79903,-2.089864 -8.362502,-1.372738 -10.970026,-0.0906 -0.975938,0.480431 -1.139127,0.962842 -1.289183,1.819938 -0.444155,2.539081 -0.467337,4.378166 0.01142,8.73414 0.557972,5.09122 -0.418993,8.647502 -0.418993,8.647502 0,0 1.115944,0.487474 4.693391,0.16711 2.019366,-0.181194 13.48996,-1.182407 20.870472,-1.431169 0.129805,-1.056523 0.240578,-2.055605 0.310238,-2.92077 0.744268,-9.298127 1.708138,-20.07177 0.697941,-22.596729 -1.376772,-3.439457 -2.74852,-8.317164 -1.383815,-13.015581 1.254924,-4.319735 5.429627,-8.240614 7.800495,-9.999151 C 84.21772,14.487273 88.807381,0.01737897 100.15307,0.01737897" />
  </symbol>
  
  <symbol id="craugastoridae" viewBox="0 0 200 200">
    <path d="m 178.39419,150.37488 c -0.99545,0.81062 -2.59763,1.7348 -4.51022,2.72724 0.88899,-3.14813 0.13174,-6.57649 -1.76392,-9.4755 3.92962,-11.34386 8.42979,-22.95187 9.70853,-27.4832 1.26768,-4.49412 -2.51426,-5.43537 -4.29928,-0.81163 -0.93217,2.41581 -7.54882,16.9259 -10.81447,23.33662 -1.88042,-0.9081 -5.02754,-1.31892 -8.89686,-1.38722 -0.37283,-2.32542 -0.73532,-4.19982 -0.92013,-5.21339 -0.48619,-2.67697 -3.11397,-2.4138 -3.50873,-0.008 -0.15757,0.9603 -0.30525,2.90803 -0.42996,5.28969 -5.70155,0.2312 -12.23886,0.93923 -18.35127,1.77098 6.2631,-15.36189 4.18076,-32.62932 3.12001,-42.608055 -0.57255,-5.375076 -1.74683,-10.319245 -2.72824,-14.495979 6.15659,1.736806 17.6622,2.745323 22.19549,2.382676 5.40723,-0.431934 7.67942,-3.13705 8.43685,-7.246471 0.86287,-4.686003 0.32459,-13.735569 -0.10745,-19.143827 -0.43197,-5.407234 -0.88801,-10.12137 -2.21995,-16.461794 -1.04773,-4.986348 -2.24106,-11.405136 -2.95729,-14.119286 -1.44546,-5.479595 -2.63981,-8.241963 -4.06925,-12.302181 -1.31288,-3.727721 -4.38061,-2.920077 -3.40725,0.431932 0.71018,2.445961 1.4073,6.240004 1.62227,7.679431 0.59768,4.01401 -0.35764,4.485128 -2.21795,1.513796 -2.80959,-4.489112 -7.40821,-13.461344 -9.78787,-16.0609915 -1.15116,-1.2576442 -2.75839,-0.9181191 -2.27118,1.4062765 0.48919,2.332489 5.67546,12.974174 7.13899,16.872659 1.28277,3.421331 1.4244,5.293755 -0.43292,4.650844 -0.76945,-0.266138 -2.47709,-1.23452 -3.73071,-1.960762 -1.56502,-0.907071 -3.14313,-2.159704 -4.7865,-2.920114 -3.24454,-1.500739 -3.50069,1.2898 -2.05519,2.771439 2.19084,2.244066 4.76638,4.166675 6.23996,5.735709 1.46054,1.553969 1.89953,2.038143 2.38572,3.376121 0.5404,1.48669 -3.91056,3.304821 -7.38109,2.63583 -2.226,-0.428933 -2.45402,1.377156 -0.97341,2.514265 1.95477,1.500737 3.77196,2.231003 6.97632,2.447975 3.40827,0.230831 6.13749,2.161679 6.246,3.459528 0.42188,5.045612 -1.54998,12.902834 -2.59566,14.601447 -0.71117,1.156163 -6.97726,-3.387203 -11.58794,-6.002911 0.0561,-1.007529 0.10247,-2.084343 0.12339,-3.298783 0.21602,-12.113303 -6.92202,-28.121071 -9.08574,-31.581583 -2.16267,-3.459889 -6.64176,-9.325175 -11.68034,-15.4295695 -4.7523,-5.7567815 -9.73364,-7.93155805 -13.84412,-7.93155805 -4.110409,0 -9.091747,2.17477655 -13.844037,7.93155805 C 82.28918,14.072345 77.811114,19.937631 75.64841,23.398146 c -2.162704,3.460515 -9.300708,19.468281 -9.084722,31.581583 0.02278,1.213414 0.0672,2.291255 0.123388,3.298783 -4.610679,2.615707 -10.876768,7.159074 -11.587936,6.002911 -1.045722,-1.698614 -3.016549,-9.554848 -2.595663,-14.601447 0.108582,-1.29785 2.836743,-3.228509 6.246005,-3.459529 3.204361,-0.217162 5.021504,-0.947238 6.976271,-2.447976 1.480653,-1.137103 1.252633,-2.944183 -0.97336,-2.514263 -3.470539,0.668003 -7.921497,-1.150164 -7.381096,-2.63583 0.486186,-1.339004 0.925143,-1.822153 2.385713,-3.376118 1.473592,-1.569037 4.049131,-3.491647 6.239968,-5.73571 1.445498,-1.481641 1.189344,-4.27218 -2.055224,-2.771442 -1.643373,0.759424 -3.221446,2.012018 -4.786459,2.920115 -1.25362,0.727229 -2.962256,1.694588 -3.730716,1.960764 -1.85731,0.642908 -1.715698,-1.229511 -0.432959,-4.650846 1.462584,-3.898485 6.649844,-14.54017 7.139028,-16.872657 0.486188,-2.324458 -1.120018,-2.6639832 -2.27117,-1.4063388 -2.379675,2.5996478 -6.978282,11.5718778 -9.787879,16.0609918 -1.85936,2.970305 -2.815634,2.499192 -2.216957,-1.513796 0.214884,-1.439424 0.912083,-5.233467 1.622266,-7.679431 0.973358,-3.352009 -2.094366,-4.160637 -3.407252,-0.431933 -1.428412,4.060218 -2.623793,6.822587 -4.069254,12.302182 -0.716218,2.714152 -1.909549,9.132937 -2.957245,14.119286 -1.333006,6.340424 -1.788022,11.053535 -2.219956,16.461793 -0.432958,5.407234 -0.970359,14.457825 -0.107441,19.143828 0.756385,4.110407 3.028543,6.814537 8.435816,7.246471 4.533307,0.36257 16.038896,-0.646895 22.195492,-2.382676 -0.981408,4.176734 -2.155679,9.120903 -2.728236,14.495979 -1.061744,9.97873 -3.144074,27.24616 3.118977,42.60805 -6.112404,-0.83174 -12.649717,-1.53993 -18.35126,-1.77097 -0.124527,-2.38065 -0.272213,-4.32939 -0.42992,-5.2897 -0.394766,-2.40678 -3.022546,-2.66996 -3.508733,0.008 -0.184891,1.01356 -0.547461,2.88795 -0.920131,5.21339 -3.869329,0.0672 -7.016439,0.47911 -8.896869,1.38721 -3.265639,-6.41073 -9.882338,-20.92178 -10.814505,-23.33662 -1.783997,-4.62373 -5.566954,-3.68249 -4.299287,0.81163 1.278754,4.53133 5.777929,16.13935 9.708533,27.48321 -1.89649,2.89899 -2.6539,6.32736 -1.763915,9.4755 -1.911561,-0.99245 -3.51473,-1.91662 -4.509198,-2.72724 -2.920076,-2.37969 -6.285185,-1.57405 -2.704128,2.9201 5.083805,6.38158 11.708477,12.76221 17.142856,21.36076 4.423851,6.99939 12.32929,19.30555 22.874544,21.73944 10.545292,2.43392 14.601485,4.54238 22.388394,3.08284 7.78691,-1.46058 8.935024,-6.74929 6.327365,-11.68039 -1.056769,-1.99995 -1.548954,-3.49767 -1.978875,-4.96122 6.66184,0.66398 11.28057,0.42491 13.17303,-0.0683 1.89253,0.4942 6.51124,0.73326 13.17312,0.0683 -0.42893,1.46355 -0.92215,2.96127 -1.97888,4.96122 -2.6077,4.9311 -1.46057,10.22084 6.32736,11.68039 7.78692,1.45954 11.84311,-0.64892 22.38836,-3.08284 10.54529,-2.4329 18.45072,-14.73907 22.87458,-21.73944 5.43435,-8.59855 12.05905,-14.97918 17.14286,-21.36076 3.57599,-4.49415 0.21108,-5.29979 -2.70917,-2.9201 z" />
  </symbol>

  <symbol id="leptodactylidae" viewBox="0 0 200 200">
    <path d="m 178.39419,150.37488 c -0.99545,0.81062 -2.59763,1.7348 -4.51022,2.72724 0.88899,-3.14813 0.13174,-6.57649 -1.76392,-9.4755 3.92962,-11.34386 8.42979,-22.95187 9.70853,-27.4832 1.26768,-4.49412 -2.51426,-5.43537 -4.29928,-0.81163 -0.93217,2.41581 -7.54882,16.9259 -10.81447,23.33662 -1.88042,-0.9081 -5.02754,-1.31892 -8.89686,-1.38722 -0.37283,-2.32542 -0.73532,-4.19982 -0.92013,-5.21339 -0.48619,-2.67697 -3.11397,-2.4138 -3.50873,-0.008 -0.15757,0.9603 -0.30525,2.90803 -0.42996,5.28969 -5.70155,0.2312 -12.23886,0.93923 -18.35127,1.77098 6.2631,-15.36189 4.18076,-32.62932 3.12001,-42.608055 -0.57255,-5.375076 -1.74683,-10.319245 -2.72824,-14.495979 6.15659,1.736806 17.6622,2.745323 22.19549,2.382676 5.40723,-0.431934 7.67942,-3.13705 8.43685,-7.246471 0.86287,-4.686003 0.32459,-13.735569 -0.10745,-19.143827 -0.43197,-5.407234 -0.88801,-10.12137 -2.21995,-16.461794 -1.04773,-4.986348 -2.24106,-11.405136 -2.95729,-14.119286 -1.44546,-5.479595 -2.63981,-8.241963 -4.06925,-12.302181 -1.31288,-3.727721 -4.38061,-2.920077 -3.40725,0.431932 0.71018,2.445961 1.4073,6.240004 1.62227,7.679431 0.59768,4.01401 -0.35764,4.485128 -2.21795,1.513796 -2.80959,-4.489112 -7.40821,-13.461344 -9.78787,-16.0609915 -1.15116,-1.2576442 -2.75839,-0.9181191 -2.27118,1.4062765 0.48919,2.332489 5.67546,12.974174 7.13899,16.872659 1.28277,3.421331 1.4244,5.293755 -0.43292,4.650844 -0.76945,-0.266138 -2.47709,-1.23452 -3.73071,-1.960762 -1.56502,-0.907071 -3.14313,-2.159704 -4.7865,-2.920114 -3.24454,-1.500739 -3.50069,1.2898 -2.05519,2.771439 2.19084,2.244066 4.76638,4.166675 6.23996,5.735709 1.46054,1.553969 1.89953,2.038143 2.38572,3.376121 0.5404,1.48669 -3.91056,3.304821 -7.38109,2.63583 -2.226,-0.428933 -2.45402,1.377156 -0.97341,2.514265 1.95477,1.500737 3.77196,2.231003 6.97632,2.447975 3.40827,0.230831 6.13749,2.161679 6.246,3.459528 0.42188,5.045612 -1.54998,12.902834 -2.59566,14.601447 -0.71117,1.156163 -6.97726,-3.387203 -11.58794,-6.002911 0.0561,-1.007529 0.10247,-2.084343 0.12339,-3.298783 0.21602,-12.113303 -6.92202,-28.121071 -9.08574,-31.581583 -2.16267,-3.459889 -6.64176,-9.325175 -11.68034,-15.4295695 -4.7523,-5.7567815 -9.73364,-7.93155805 -13.84412,-7.93155805 -4.110409,0 -9.091747,2.17477655 -13.844037,7.93155805 C 82.28918,14.072345 77.811114,19.937631 75.64841,23.398146 c -2.162704,3.460515 -9.300708,19.468281 -9.084722,31.581583 0.02278,1.213414 0.0672,2.291255 0.123388,3.298783 -4.610679,2.615707 -10.876768,7.159074 -11.587936,6.002911 -1.045722,-1.698614 -3.016549,-9.554848 -2.595663,-14.601447 0.108582,-1.29785 2.836743,-3.228509 6.246005,-3.459529 3.204361,-0.217162 5.021504,-0.947238 6.976271,-2.447976 1.480653,-1.137103 1.252633,-2.944183 -0.97336,-2.514263 -3.470539,0.668003 -7.921497,-1.150164 -7.381096,-2.63583 0.486186,-1.339004 0.925143,-1.822153 2.385713,-3.376118 1.473592,-1.569037 4.049131,-3.491647 6.239968,-5.73571 1.445498,-1.481641 1.189344,-4.27218 -2.055224,-2.771442 -1.643373,0.759424 -3.221446,2.012018 -4.786459,2.920115 -1.25362,0.727229 -2.962256,1.694588 -3.730716,1.960764 -1.85731,0.642908 -1.715698,-1.229511 -0.432959,-4.650846 1.462584,-3.898485 6.649844,-14.54017 7.139028,-16.872657 0.486188,-2.324458 -1.120018,-2.6639832 -2.27117,-1.4063388 -2.379675,2.5996478 -6.978282,11.5718778 -9.787879,16.0609918 -1.85936,2.970305 -2.815634,2.499192 -2.216957,-1.513796 0.214884,-1.439424 0.912083,-5.233467 1.622266,-7.679431 0.973358,-3.352009 -2.094366,-4.160637 -3.407252,-0.431933 -1.428412,4.060218 -2.623793,6.822587 -4.069254,12.302182 -0.716218,2.714152 -1.909549,9.132937 -2.957245,14.119286 -1.333006,6.340424 -1.788022,11.053535 -2.219956,16.461793 -0.432958,5.407234 -0.970359,14.457825 -0.107441,19.143828 0.756385,4.110407 3.028543,6.814537 8.435816,7.246471 4.533307,0.36257 16.038896,-0.646895 22.195492,-2.382676 -0.981408,4.176734 -2.155679,9.120903 -2.728236,14.495979 -1.061744,9.97873 -3.144074,27.24616 3.118977,42.60805 -6.112404,-0.83174 -12.649717,-1.53993 -18.35126,-1.77097 -0.124527,-2.38065 -0.272213,-4.32939 -0.42992,-5.2897 -0.394766,-2.40678 -3.022546,-2.66996 -3.508733,0.008 -0.184891,1.01356 -0.547461,2.88795 -0.920131,5.21339 -3.869329,0.0672 -7.016439,0.47911 -8.896869,1.38721 -3.265639,-6.41073 -9.882338,-20.92178 -10.814505,-23.33662 -1.783997,-4.62373 -5.566954,-3.68249 -4.299287,0.81163 1.278754,4.53133 5.777929,16.13935 9.708533,27.48321 -1.89649,2.89899 -2.6539,6.32736 -1.763915,9.4755 -1.911561,-0.99245 -3.51473,-1.91662 -4.509198,-2.72724 -2.920076,-2.37969 -6.285185,-1.57405 -2.704128,2.9201 5.083805,6.38158 11.708477,12.76221 17.142856,21.36076 4.423851,6.99939 12.32929,19.30555 22.874544,21.73944 10.545292,2.43392 14.601485,4.54238 22.388394,3.08284 7.78691,-1.46058 8.935024,-6.74929 6.327365,-11.68039 -1.056769,-1.99995 -1.548954,-3.49767 -1.978875,-4.96122 6.66184,0.66398 11.28057,0.42491 13.17303,-0.0683 1.89253,0.4942 6.51124,0.73326 13.17312,0.0683 -0.42893,1.46355 -0.92215,2.96127 -1.97888,4.96122 -2.6077,4.9311 -1.46057,10.22084 6.32736,11.68039 7.78692,1.45954 11.84311,-0.64892 22.38836,-3.08284 10.54529,-2.4329 18.45072,-14.73907 22.87458,-21.73944 5.43435,-8.59855 12.05905,-14.97918 17.14286,-21.36076 3.57599,-4.49415 0.21108,-5.29979 -2.70917,-2.9201 z" />
  </symbol>

  <symbol id="hylidae" viewBox="0 0 200 200">
    <path d="m 100.0424,179.28353 c 4.27233,0 7.90519,-0.60444 10.9866,-1.5512 -1.1599,6.86939 -1.82842,13.6157 -2.21472,15.61724 -0.6335,3.27659 6.42101,7.37579 11.55404,6.22191 5.30621,-1.19194 44.73314,-43.04081 61.05994,-70.79959 4.33043,-7.36176 6.62421,-10.42116 8.03232,-12.59288 1.40709,-2.17168 3.60582,-3.6809 5.37323,-5.72349 1.57624,-1.82044 0.0882,-3.31259 -0.95176,-4.29336 -1.12389,-1.05883 -3.62083,0.46037 -3.71391,1.65031 -0.14601,1.86546 -0.25532,2.08061 -2.21273,2.8512 -1.17995,0.46537 -2.77821,0.66153 -3.9411,-0.17512 -1.46916,-1.05683 -2.59804,-3.27459 -2.28579,-5.84559 0.29806,-2.46196 4.43546,-10.471238 5.22408,-11.936388 0.37832,-0.702523 1.80141,-2.133669 1.33405,-4.056161 -0.37636,-1.544203 -2.49494,-3.292587 -4.67165,-2.089639 -1.5172,0.837633 -1.8905,1.988571 -1.48917,3.895063 0.25229,1.199922 -3.17049,8.466627 -5.74153,12.354695 -2.31482,3.50073 -4.68466,4.75872 -5.84357,5.11401 -2.02958,0.61951 -3.1885,-1.11187 -3.55079,-1.78943 -0.89672,-1.6713 -1.07884,-2.95431 -0.50141,-4.31737 1.19894,-2.832224 -0.37828,-5.30817 -2.11166,-5.346185 -1.73234,-0.03896 -4.07919,2.231749 -3.3076,4.212305 0.8617,2.20973 0.90772,7.08356 -1.47615,11.81928 -0.74758,-3.81401 -1.91848,-7.90322 -3.54575,-12.20858 -1.75641,-4.649669 -10.62738,-9.849732 -16.48995,-5.789562 -2.84424,1.970567 -7.31576,5.773522 -12.24764,11.068682 0.52341,-8.23147 0.25228,-20.213851 0.25228,-26.619887 0,-0.927734 0.0571,-1.89348 0.15509,-2.875265 2.68815,1.834435 5.73052,3.835036 8.36858,5.249122 4.70271,2.52198 10.52628,3.740926 15.98158,4.451506 4.10522,0.53443 4.51955,1.001795 7.09056,-2.225734 1.56322,-1.962548 4.26234,-8.753907 5.7315,-13.205377 1.46916,-4.451506 2.1727,-5.490331 3.05538,-10.831519 0.88171,-5.342171 0.73359,-11.227811 0.37931,-13.502605 -0.59646,-3.830984 -1.34804,-6.918408 -2.98635,-10.829468 -0.93372,-2.230766 -2.22774,-4.169296 -3.75492,-6.753311 -2.20675,-3.732942 -5.07199,-10.32111 -5.86964,-12.143517 -0.59745,-1.366083 -1.22394,-2.16771 -1.50616,-3.955126 -0.26439,-1.674322 -0.88272,-2.6831177 -2.10768,-3.1855086 -1.74037,-0.7145513 -3.28355,0.01513 -3.72493,2.0175846 -0.26326,1.193944 0.60248,2.721165 1.26801,3.227527 0.89369,0.679564 2.53499,2.615067 4.21532,6.817387 0.71157,1.777396 1.82544,5.450275 2.29579,6.812352 0.31509,0.913696 0.22923,1.34804 -0.56241,0.839635 -0.79066,-0.507384 -1.57228,-1.216939 -2.16571,-2.060628 -1.20094,-1.709307 -5.05296,-6.848361 -6.61619,-8.720849 -1.20496,-1.444119 -3.08341,-3.505732 -3.89106,-4.929841 -0.55145,-0.971757 -0.94074,-2.964343 -1.93252,-4.0031676 -0.95878,-1.0047823 -3.33366,-1.0458224 -4.60764,0.5174079 -0.83268,1.0218037 -0.90875,2.7331597 -0.4904,3.5688267 0.75858,1.519161 2.29681,1.708323 3.65086,2.439896 1.32104,0.714551 3.01238,2.893269 4.18735,4.376424 1.1759,1.484176 3.21651,4.464519 5.21708,7.344776 1.59424,2.295824 2.35184,2.912299 3.12245,5.082998 0.25305,0.711564 0.11612,1.465151 -1.62531,0.488392 -1.14889,-0.644495 -5.98368,-4.134264 -7.45284,-5.024967 -1.46916,-0.88968 -2.12769,-1.582222 -2.86225,-2.919296 -1.10989,-2.018567 -3.74797,-2.002564 -4.77676,-0.81562 -1.0288,1.185929 -0.69655,2.212723 0,3.337599 1.10286,1.780425 2.13067,1.187931 3.30658,1.854486 1.74237,0.988779 5.73154,3.858033 7.2007,5.490291 1.47015,1.632298 3.15948,3.33862 4.04118,5.638415 0.5224,1.363099 0.14714,1.780422 -1.32304,1.335071 -1.47018,-0.445351 -2.19472,-0.479394 -3.81102,-0.627517 -1.61724,-0.148274 -3.94412,-1.289982 -5.27515,-2.658073 -1.56825,-1.611265 -3.37564,-0.280283 -3.71694,0.667534 -0.56942,1.579231 -0.42231,2.617034 2.14869,3.434696 2.13968,0.679526 3.30666,0.741559 5.51136,1.854445 1.70935,0.863696 5.7315,3.561788 7.34776,4.155262 1.61631,0.592452 3.96815,0.147139 4.55561,1.928506 0.80862,2.447918 0.22316,6.672248 -0.58746,10.088939 -0.72761,3.061402 -4.11525,10.163985 -5.58441,11.276833 -0.48438,0.368415 -2.9393,-0.555422 -5.69447,-2.670102 -2.16968,-1.664298 -7.5089,-5.73748 -11.88634,-8.853916 0.14903,-0.410326 0.23905,-0.642533 0.23905,-0.642533 1.46916,-3.560768 0.88268,-10.682376 0.58845,-13.501585 -0.29315,-2.819207 -0.29429,-4.155261 -0.58845,-7.716065 -0.29314,-3.561788 -0.8817,-10.089924 -2.79118,-13.205376 -1.9105,-3.115416 -7.93625,-7.716024 -10.36116,-9.607541 -2.42489,-1.892459 -9.3133,-9.7926574 -10.9666,-11.5740619 -1.65329,-1.7793999 -5.51132,-4.11724752 -7.66001,-4.11724752 -2.148678,0 -6.006698,2.33682642 -7.659989,4.11724752 -1.653292,1.7814045 -8.54171,9.6816029 -10.966592,11.5740619 -2.424921,1.891517 -8.450665,6.492125 -10.361166,9.607541 -1.910501,3.115452 -2.497961,9.643588 -2.792164,13.205376 -0.294278,3.561788 -0.294278,4.897841 -0.58746,7.716065 -0.294277,2.819209 -0.881699,9.940817 0.58746,13.501585 0,0 0.09002,0.232244 0.239054,0.642533 -4.376462,3.115415 -9.717649,7.189618 -11.886344,8.853916 -2.755171,2.11468 -5.210087,3.038404 -5.694473,2.670102 -1.46916,-1.111865 -4.856805,-8.214448 -5.584376,-11.276833 -0.810634,-3.416691 -1.396093,-7.641021 -0.587463,-10.088939 0.587463,-1.781405 2.93931,-1.336054 4.555578,-1.928506 1.617283,-0.593474 5.639438,-3.291566 7.347765,-4.155262 2.204741,-1.112886 3.371642,-1.173935 5.511324,-1.854445 2.572022,-0.81664 2.718141,-1.855465 2.148685,-3.434696 -0.341181,-0.947742 -2.148685,-2.278799 -3.716907,-0.667534 -1.331062,1.368091 -3.657865,2.509988 -5.275146,2.658073 -1.617282,0.148274 -2.340836,0.182317 -3.810979,0.627517 -1.470181,0.445351 -1.84548,0.02648 -1.323041,-1.335071 0.881699,-2.299795 2.572022,-4.006117 4.042165,-5.638415 1.470143,-1.631277 5.458293,-4.501512 7.200662,-5.490291 1.175903,-0.667535 2.204704,-0.07413 3.307566,-1.854486 0.696547,-1.124876 1.028839,-2.15167 0,-3.337599 -1.028801,-1.186944 -3.666865,-1.202947 -4.776726,0.81562 -0.734598,1.337074 -1.393093,2.029616 -2.862252,2.919296 -1.470143,0.890703 -6.303946,4.380472 -7.452842,5.024967 -1.741386,0.976759 -1.878502,0.223168 -1.626285,-0.488392 0.771591,-2.170699 1.528205,-2.787174 3.122451,-5.082998 2.001584,-2.880257 4.042165,-5.859579 5.218106,-7.344776 1.174919,-1.484135 2.867246,-3.662852 4.188283,-4.376424 1.353037,-0.731573 2.891264,-0.920735 3.649844,-2.439896 0.418344,-0.835667 0.342315,-2.547023 -0.490364,-3.5688267 -1.27402,-1.5632303 -3.64886,-1.5221902 -4.607609,-0.5174079 -0.991809,1.0388246 -1.381104,3.0314106 -1.932515,4.0031676 -0.807639,1.424109 -2.68614,3.485722 -3.891055,4.929841 -1.56323,1.872488 -5.416271,7.012522 -6.616214,8.720849 -0.593459,0.843689 -1.374072,1.553244 -2.165699,2.060628 -0.790617,0.508405 -0.877683,0.07301 -0.562439,-0.839635 0.470366,-1.362077 1.584246,-5.033974 2.295798,-6.812352 1.680321,-4.20232 3.321622,-6.137823 4.215312,-6.817387 0.665531,-0.505374 1.531193,-2.032561 1.268007,-3.227527 -0.441342,-2.0025679 -1.983579,-2.7311147 -3.724927,-2.0175846 -1.224968,0.5023909 -1.843457,1.5111866 -2.107663,3.1855086 -0.282213,1.787416 -0.909714,2.589043 -1.507181,3.955126 -0.796625,1.822407 -3.662876,8.410575 -5.868605,12.143517 -1.527198,2.584015 -2.821216,4.522545 -3.754948,6.753311 -1.638287,3.912042 -2.390879,6.998484 -2.986346,10.829472 -0.354268,2.274794 -0.501392,8.160434 0.379297,13.502605 0.881693,5.340204 1.585245,6.380013 3.055399,10.831519 1.470155,4.451469 4.168273,11.242829 5.7315,13.205377 2.572019,3.227528 2.985339,2.760163 7.090548,2.225734 5.455305,-0.71058 11.279858,-1.929527 15.981577,-4.451507 2.638064,-1.414085 5.680439,-3.413665 8.368546,-5.249122 0.09797,0.980764 0.155082,1.946549 0.155082,2.875266 0,6.406036 -0.271204,18.389439 0.252293,26.619883 -4.931845,-5.29516 -9.403362,-9.097128 -12.24761,-11.068678 -5.862605,-4.06017 -14.733558,1.139892 -16.489938,5.789568 -1.62628,4.30535 -2.798196,8.39358 -3.545784,12.20857 -2.384871,-4.73571 -2.338835,-9.60954 -1.477159,-11.81927 0.771606,-1.980562 -1.575236,-4.251346 -3.307597,-4.212311 -1.733359,0.0382 -3.310596,2.513961 -2.111654,5.346191 0.577451,1.36408 0.39631,2.64607 -0.500395,4.31737 -0.362287,0.67653 -1.522193,2.40893 -3.550788,1.78943 -1.158907,-0.35518 -3.529768,-1.61426 -5.843586,-5.11402 -2.571016,-3.888064 -5.993702,-11.154769 -5.741504,-12.354692 0.401314,-1.906491 0.02799,-3.057429 -1.48917,-3.895062 -2.176709,-1.201965 -4.295372,0.546419 -4.671667,2.089639 -0.468367,1.922492 0.954748,3.353638 1.333047,4.05616 0.789618,1.464168 4.924864,9.474435 5.2241,11.936385 0.312246,2.571 -0.81664,4.78978 -2.285797,5.84559 -1.163912,0.83665 -2.761165,0.64049 -3.941092,0.17513 -1.957537,-0.7706 -2.065621,-0.98575 -2.2127377,-2.8512 -0.09407,-1.19096 -2.5900275,-2.70915 -3.7149113,-1.65032 -1.039816,0.98078 -2.5279825,2.47194 -0.9517481,4.29337 1.7673909,2.04361 3.9661107,3.5518 5.3732141,5.72348 1.409109,2.17172 3.70291,5.23011 8.033308,12.59288 16.326813,27.75878 55.753772,69.60765 61.059934,70.79959 5.132016,1.15291 12.187544,-2.94532 11.554052,-6.22191 -0.38729,-2.00154 -1.055808,-8.74785 -2.214727,-15.61724 3.084399,0.94573 6.71726,1.5512 10.988588,1.5512 z" />
  </symbol>

  <symbol id="microhylidae" viewBox="0 0 200 200">
    <path d="m 100.0424,179.28353 c 4.27233,0 7.90519,-0.60444 10.9866,-1.5512 -1.1599,6.86939 -1.82842,13.6157 -2.21472,15.61724 -0.6335,3.27659 6.42101,7.37579 11.55404,6.22191 5.30621,-1.19194 44.73314,-43.04081 61.05994,-70.79959 4.33043,-7.36176 6.62421,-10.42116 8.03232,-12.59288 1.40709,-2.17168 3.60582,-3.6809 5.37323,-5.72349 1.57624,-1.82044 0.0882,-3.31259 -0.95176,-4.29336 -1.12389,-1.05883 -3.62083,0.46037 -3.71391,1.65031 -0.14601,1.86546 -0.25532,2.08061 -2.21273,2.8512 -1.17995,0.46537 -2.77821,0.66153 -3.9411,-0.17512 -1.46916,-1.05683 -2.59804,-3.27459 -2.28579,-5.84559 0.29806,-2.46196 4.43546,-10.471238 5.22408,-11.936388 0.37832,-0.702523 1.80141,-2.133669 1.33405,-4.056161 -0.37636,-1.544203 -2.49494,-3.292587 -4.67165,-2.089639 -1.5172,0.837633 -1.8905,1.988571 -1.48917,3.895063 0.25229,1.199922 -3.17049,8.466627 -5.74153,12.354695 -2.31482,3.50073 -4.68466,4.75872 -5.84357,5.11401 -2.02958,0.61951 -3.1885,-1.11187 -3.55079,-1.78943 -0.89672,-1.6713 -1.07884,-2.95431 -0.50141,-4.31737 1.19894,-2.832224 -0.37828,-5.30817 -2.11166,-5.346185 -1.73234,-0.03896 -4.07919,2.231749 -3.3076,4.212305 0.8617,2.20973 0.90772,7.08356 -1.47615,11.81928 -0.74758,-3.81401 -1.91848,-7.90322 -3.54575,-12.20858 -1.75641,-4.649669 -10.62738,-9.849732 -16.48995,-5.789562 -2.84424,1.970567 -7.31576,5.773522 -12.24764,11.068682 0.52341,-8.23147 0.25228,-20.213851 0.25228,-26.619887 0,-0.927734 0.0571,-1.89348 0.15509,-2.875265 2.68815,1.834435 5.73052,3.835036 8.36858,5.249122 4.70271,2.52198 10.52628,3.740926 15.98158,4.451506 4.10522,0.53443 4.51955,1.001795 7.09056,-2.225734 1.56322,-1.962548 4.26234,-8.753907 5.7315,-13.205377 1.46916,-4.451506 2.1727,-5.490331 3.05538,-10.831519 0.88171,-5.342171 0.73359,-11.227811 0.37931,-13.502605 -0.59646,-3.830984 -1.34804,-6.918408 -2.98635,-10.829468 -0.93372,-2.230766 -2.22774,-4.169296 -3.75492,-6.753311 -2.20675,-3.732942 -5.07199,-10.32111 -5.86964,-12.143517 -0.59745,-1.366083 -1.22394,-2.16771 -1.50616,-3.955126 -0.26439,-1.674322 -0.88272,-2.6831177 -2.10768,-3.1855086 -1.74037,-0.7145513 -3.28355,0.01513 -3.72493,2.0175846 -0.26326,1.193944 0.60248,2.721165 1.26801,3.227527 0.89369,0.679564 2.53499,2.615067 4.21532,6.817387 0.71157,1.777396 1.82544,5.450275 2.29579,6.812352 0.31509,0.913696 0.22923,1.34804 -0.56241,0.839635 -0.79066,-0.507384 -1.57228,-1.216939 -2.16571,-2.060628 -1.20094,-1.709307 -5.05296,-6.848361 -6.61619,-8.720849 -1.20496,-1.444119 -3.08341,-3.505732 -3.89106,-4.929841 -0.55145,-0.971757 -0.94074,-2.964343 -1.93252,-4.0031676 -0.95878,-1.0047823 -3.33366,-1.0458224 -4.60764,0.5174079 -0.83268,1.0218037 -0.90875,2.7331597 -0.4904,3.5688267 0.75858,1.519161 2.29681,1.708323 3.65086,2.439896 1.32104,0.714551 3.01238,2.893269 4.18735,4.376424 1.1759,1.484176 3.21651,4.464519 5.21708,7.344776 1.59424,2.295824 2.35184,2.912299 3.12245,5.082998 0.25305,0.711564 0.11612,1.465151 -1.62531,0.488392 -1.14889,-0.644495 -5.98368,-4.134264 -7.45284,-5.024967 -1.46916,-0.88968 -2.12769,-1.582222 -2.86225,-2.919296 -1.10989,-2.018567 -3.74797,-2.002564 -4.77676,-0.81562 -1.0288,1.185929 -0.69655,2.212723 0,3.337599 1.10286,1.780425 2.13067,1.187931 3.30658,1.854486 1.74237,0.988779 5.73154,3.858033 7.2007,5.490291 1.47015,1.632298 3.15948,3.33862 4.04118,5.638415 0.5224,1.363099 0.14714,1.780422 -1.32304,1.335071 -1.47018,-0.445351 -2.19472,-0.479394 -3.81102,-0.627517 -1.61724,-0.148274 -3.94412,-1.289982 -5.27515,-2.658073 -1.56825,-1.611265 -3.37564,-0.280283 -3.71694,0.667534 -0.56942,1.579231 -0.42231,2.617034 2.14869,3.434696 2.13968,0.679526 3.30666,0.741559 5.51136,1.854445 1.70935,0.863696 5.7315,3.561788 7.34776,4.155262 1.61631,0.592452 3.96815,0.147139 4.55561,1.928506 0.80862,2.447918 0.22316,6.672248 -0.58746,10.088939 -0.72761,3.061402 -4.11525,10.163985 -5.58441,11.276833 -0.48438,0.368415 -2.9393,-0.555422 -5.69447,-2.670102 -2.16968,-1.664298 -7.5089,-5.73748 -11.88634,-8.853916 0.14903,-0.410326 0.23905,-0.642533 0.23905,-0.642533 1.46916,-3.560768 0.88268,-10.682376 0.58845,-13.501585 -0.29315,-2.819207 -0.29429,-4.155261 -0.58845,-7.716065 -0.29314,-3.561788 -0.8817,-10.089924 -2.79118,-13.205376 -1.9105,-3.115416 -7.93625,-7.716024 -10.36116,-9.607541 -2.42489,-1.892459 -9.3133,-9.7926574 -10.9666,-11.5740619 -1.65329,-1.7793999 -5.51132,-4.11724752 -7.66001,-4.11724752 -2.148678,0 -6.006698,2.33682642 -7.659989,4.11724752 -1.653292,1.7814045 -8.54171,9.6816029 -10.966592,11.5740619 -2.424921,1.891517 -8.450665,6.492125 -10.361166,9.607541 -1.910501,3.115452 -2.497961,9.643588 -2.792164,13.205376 -0.294278,3.561788 -0.294278,4.897841 -0.58746,7.716065 -0.294277,2.819209 -0.881699,9.940817 0.58746,13.501585 0,0 0.09002,0.232244 0.239054,0.642533 -4.376462,3.115415 -9.717649,7.189618 -11.886344,8.853916 -2.755171,2.11468 -5.210087,3.038404 -5.694473,2.670102 -1.46916,-1.111865 -4.856805,-8.214448 -5.584376,-11.276833 -0.810634,-3.416691 -1.396093,-7.641021 -0.587463,-10.088939 0.587463,-1.781405 2.93931,-1.336054 4.555578,-1.928506 1.617283,-0.593474 5.639438,-3.291566 7.347765,-4.155262 2.204741,-1.112886 3.371642,-1.173935 5.511324,-1.854445 2.572022,-0.81664 2.718141,-1.855465 2.148685,-3.434696 -0.341181,-0.947742 -2.148685,-2.278799 -3.716907,-0.667534 -1.331062,1.368091 -3.657865,2.509988 -5.275146,2.658073 -1.617282,0.148274 -2.340836,0.182317 -3.810979,0.627517 -1.470181,0.445351 -1.84548,0.02648 -1.323041,-1.335071 0.881699,-2.299795 2.572022,-4.006117 4.042165,-5.638415 1.470143,-1.631277 5.458293,-4.501512 7.200662,-5.490291 1.175903,-0.667535 2.204704,-0.07413 3.307566,-1.854486 0.696547,-1.124876 1.028839,-2.15167 0,-3.337599 -1.028801,-1.186944 -3.666865,-1.202947 -4.776726,0.81562 -0.734598,1.337074 -1.393093,2.029616 -2.862252,2.919296 -1.470143,0.890703 -6.303946,4.380472 -7.452842,5.024967 -1.741386,0.976759 -1.878502,0.223168 -1.626285,-0.488392 0.771591,-2.170699 1.528205,-2.787174 3.122451,-5.082998 2.001584,-2.880257 4.042165,-5.859579 5.218106,-7.344776 1.174919,-1.484135 2.867246,-3.662852 4.188283,-4.376424 1.353037,-0.731573 2.891264,-0.920735 3.649844,-2.439896 0.418344,-0.835667 0.342315,-2.547023 -0.490364,-3.5688267 -1.27402,-1.5632303 -3.64886,-1.5221902 -4.607609,-0.5174079 -0.991809,1.0388246 -1.381104,3.0314106 -1.932515,4.0031676 -0.807639,1.424109 -2.68614,3.485722 -3.891055,4.929841 -1.56323,1.872488 -5.416271,7.012522 -6.616214,8.720849 -0.593459,0.843689 -1.374072,1.553244 -2.165699,2.060628 -0.790617,0.508405 -0.877683,0.07301 -0.562439,-0.839635 0.470366,-1.362077 1.584246,-5.033974 2.295798,-6.812352 1.680321,-4.20232 3.321622,-6.137823 4.215312,-6.817387 0.665531,-0.505374 1.531193,-2.032561 1.268007,-3.227527 -0.441342,-2.0025679 -1.983579,-2.7311147 -3.724927,-2.0175846 -1.224968,0.5023909 -1.843457,1.5111866 -2.107663,3.1855086 -0.282213,1.787416 -0.909714,2.589043 -1.507181,3.955126 -0.796625,1.822407 -3.662876,8.410575 -5.868605,12.143517 -1.527198,2.584015 -2.821216,4.522545 -3.754948,6.753311 -1.638287,3.912042 -2.390879,6.998484 -2.986346,10.829472 -0.354268,2.274794 -0.501392,8.160434 0.379297,13.502605 0.881693,5.340204 1.585245,6.380013 3.055399,10.831519 1.470155,4.451469 4.168273,11.242829 5.7315,13.205377 2.572019,3.227528 2.985339,2.760163 7.090548,2.225734 5.455305,-0.71058 11.279858,-1.929527 15.981577,-4.451507 2.638064,-1.414085 5.680439,-3.413665 8.368546,-5.249122 0.09797,0.980764 0.155082,1.946549 0.155082,2.875266 0,6.406036 -0.271204,18.389439 0.252293,26.619883 -4.931845,-5.29516 -9.403362,-9.097128 -12.24761,-11.068678 -5.862605,-4.06017 -14.733558,1.139892 -16.489938,5.789568 -1.62628,4.30535 -2.798196,8.39358 -3.545784,12.20857 -2.384871,-4.73571 -2.338835,-9.60954 -1.477159,-11.81927 0.771606,-1.980562 -1.575236,-4.251346 -3.307597,-4.212311 -1.733359,0.0382 -3.310596,2.513961 -2.111654,5.346191 0.577451,1.36408 0.39631,2.64607 -0.500395,4.31737 -0.362287,0.67653 -1.522193,2.40893 -3.550788,1.78943 -1.158907,-0.35518 -3.529768,-1.61426 -5.843586,-5.11402 -2.571016,-3.888064 -5.993702,-11.154769 -5.741504,-12.354692 0.401314,-1.906491 0.02799,-3.057429 -1.48917,-3.895062 -2.176709,-1.201965 -4.295372,0.546419 -4.671667,2.089639 -0.468367,1.922492 0.954748,3.353638 1.333047,4.05616 0.789618,1.464168 4.924864,9.474435 5.2241,11.936385 0.312246,2.571 -0.81664,4.78978 -2.285797,5.84559 -1.163912,0.83665 -2.761165,0.64049 -3.941092,0.17513 -1.957537,-0.7706 -2.065621,-0.98575 -2.2127377,-2.8512 -0.09407,-1.19096 -2.5900275,-2.70915 -3.7149113,-1.65032 -1.039816,0.98078 -2.5279825,2.47194 -0.9517481,4.29337 1.7673909,2.04361 3.9661107,3.5518 5.3732141,5.72348 1.409109,2.17172 3.70291,5.23011 8.033308,12.59288 16.326813,27.75878 55.753772,69.60765 61.059934,70.79959 5.132016,1.15291 12.187544,-2.94532 11.554052,-6.22191 -0.38729,-2.00154 -1.055808,-8.74785 -2.214727,-15.61724 3.084399,0.94573 6.71726,1.5512 10.988588,1.5512 z" />
  </symbol>
</svg>
