<svg xmlns:svg="http://www.w3.org/2000/svg" xmlns="http://www.w3.org/2000/svg">

  <symbol id="odontophrynidae" viewBox="0 0 200 200">
    <path d="m 176.462,75.991 c 4.458,-7.418 7.025,-13.909 7.197,-17.444 0.261,-5.393 8.229,-17.4 5.467,-19.069 -2.355,-1.421 -6.6,9.214 -8.524,8.605 -1.928,-0.608 3.091,-23.788 -0.798,-24.284 -3.889,-0.496 -5.589,24.387 -8.883,24.758 -3.295,0.373 -3.18,-10.074 -7.419,-11.166 -5.465,-1.406 1.726,14.664 -0.672,17.79 -2.399,3.126 -14.536,-6.962 -15.651,-3.432 -1.113,3.529 13.186,9.008 12.916,12.099 -0.27,3.093 -5.112,5.456 -11.146,8.2 -1.979,0.898 -3.657,-2.275 -5.352,-5.871 0.033,-0.126 0.063,-0.244 0.096,-0.37 C 146.806,54.096 142.381,43.856 136.384,32.6 129.425,19.538 115.788,0.688 99.855,0.688 c -15.932,0 -29.569,18.85 -36.527,31.912 -5.997,11.256 -10.422,21.496 -7.31,33.207 0.034,0.126 0.063,0.244 0.096,0.37 -1.694,3.596 -3.372,6.77 -5.351,5.871 -6.034,-2.744 -10.877,-5.106 -11.147,-8.2 -0.269,-3.091 14.03,-8.57 12.917,-12.099 -1.114,-3.53 -13.253,6.558 -15.651,3.432 -2.398,-3.126 4.793,-19.196 -0.672,-17.79 -4.239,1.091 -4.124,11.539 -7.419,11.166 -3.293,-0.372 -4.993,-25.254 -8.882,-24.758 -3.889,0.496 1.128,23.675 -0.798,24.284 -1.926,0.609 -6.171,-10.026 -8.524,-8.605 -2.762,1.668 5.206,13.676 5.465,19.069 0.172,3.535 2.74,10.026 7.198,17.444 4.458,7.417 21.936,22.274 25.771,22.123 2.46,-0.097 5.529,-2.211 8.95,-4.867 -1.03,3.874 -2.682,7.458 -4.531,12.013 -4.585,11.292 -7.619,17.523 1.43,34.661 -4.374,-0.056 -10.491,0.042 -12.139,0.941 -4.877,2.661 -3.89,5.828 -4.085,8.379 -0.078,1.022 -0.52,1.364 -1.152,1.156 -1.028,-0.338 -1.914,-1.121 -4.682,-3.625 -2.475,-2.236 -11.855,-12.885 -12.846,-13.634 -2.216,-1.678 -3.607,-1.06 -2.484,2.083 1.123,3.142 12.077,19.726 11.886,21.22 -0.19,1.472 -0.899,2.111 -1.881,1.947 -1.015,-0.17 -3.035,-0.787 -4.438,-2.021 -2.544,-2.24 -4.257,-0.457 -1.458,2.757 6.477,7.437 21.542,35.446 35.007,38.588 13.464,3.142 27.826,3.366 29.396,-1.347 0.947,-2.841 1.975,-4.958 2.74,-8.398 2.981,2.189 8.322,3.803 11.121,3.803 2.8,0 8.141,-1.614 11.122,-3.803 0.767,3.44 1.793,5.557 2.739,8.398 1.57,4.713 15.934,4.489 29.397,1.347 13.464,-3.143 28.53,-31.151 35.007,-38.588 2.8,-3.214 1.087,-4.997 -1.458,-2.757 -1.403,1.234 -3.423,1.852 -4.438,2.021 -0.981,0.164 -1.69,-0.475 -1.881,-1.947 -0.19,-1.494 10.764,-18.078 11.886,-21.22 1.122,-3.142 -0.268,-3.76 -2.484,-2.083 -0.99,0.749 -10.37,11.398 -12.845,13.634 -2.769,2.503 -3.655,3.286 -4.683,3.625 -0.631,0.208 -1.073,-0.134 -1.152,-1.156 -0.195,-2.552 0.792,-5.718 -4.085,-8.379 -1.647,-0.899 -7.765,-0.997 -12.139,-0.941 9.049,-17.138 6.015,-23.369 1.429,-34.661 -1.849,-4.554 -3.502,-8.139 -4.531,-12.013 3.422,2.656 6.491,4.771 8.951,4.867 3.834,0.152 21.313,-14.706 25.772,-22.123 z"
    />
  </symbol>

  <symbol id="hand" viewBox="0 0 200 200">
    <path d="m 100.559,199.168 c 9.307,-0.723 30.588,3.548 40.166,-8.5 4.425,-5.568 8.65,-21.935 11.739,-32.748 3.09,-10.813 5.252,-31.203 7.106,-37.69 1.854,-6.488 18.227,-29.349 21.935,-34.91 3.707,-5.561 9.586,-14.796 9.609,-20.699 0.032,-8.341 -7.901,-10.228 -11.851,-6.646 -2.976,2.698 -9.807,13.133 -12.278,17.458 -2.472,4.325 -17.918,25.333 -21.935,28.422 -4.017,3.089 -5.561,0.927 -6.179,-3.708 -0.618,-4.634 5.87,-19.772 8.341,-29.967 2.472,-10.195 3.398,-13.593 3.398,-13.593 0,0 0,0 1.854,-9.268 1.854,-9.269 3.255,-15.588 4.635,-21.935 1.545,-7.105 -11.431,-13.593 -15.708,-4.004 -3.201,7.175 -7.033,22.541 -7.033,22.541 -2.042,6.488 -4.754,14.52 -6.608,20.081 -1.854,5.561 -6.936,24.206 -7.724,26.568 -1.235,3.708 -8.341,2.163 -8.959,-2.163 -0.309,-2.162 -0.309,-20.081 -0.927,-28.422 -0.618,-8.342 -2.163,-16.683 -3.089,-25.951 -0.926,-9.268 0.622,-20.661 0,-26.877 -0.927,-9.268 -15.138,-9.268 -16.992,0 -0.824,4.12 -1.545,20.081 -1.442,25.024 0.103,4.943 -0.412,18.536 -0.412,27.805 0,9.268 0.723,25.771 0.375,27.814 -0.684,4.006 -5.009,4.933 -7.48,3.08 C 78.629,89.026 73.995,67.092 71.214,60.604 68.433,54.117 62.726,33.472 60.4,26.93 55.457,13.028 39.701,20.442 41.878,30.636 c 1.163,5.447 5.488,25.833 7.092,33.367 1.604,7.533 11.74,32.748 11.74,38.617 0,5.869 0.121,12.62 0.323,17.412 0.294,6.995 -3.413,14.409 -3.413,14.409 0,0 -5.561,-4.017 -12.357,-15.138 -6.797,-11.122 -14.521,-20.488 -25.951,-20.39 -8.392,0.072 -11.74,4.943 -7.415,8.959 4.325,4.016 14.211,25.024 14.211,25.024 0,0 9.268,11.74 12.357,23.633 2.611,10.051 18.026,27.879 25.024,33.817 14.212,12.061 24.407,9.806 37.07,8.822 z" />
  </symbol>

</svg>
