<?xml version="1.0" encoding="UTF-8" standalone="no"?>
<svg
   xmlns:dc="http://purl.org/dc/elements/1.1/"
   xmlns:cc="http://creativecommons.org/ns#"
   xmlns:rdf="http://www.w3.org/1999/02/22-rdf-syntax-ns#"
   xmlns:svg="http://www.w3.org/2000/svg"
   xmlns="http://www.w3.org/2000/svg"
   height="200mm"
   width="200mm"
   id="svg26"
   xml:space="preserve"
   enable-background="new 0 0 200 200"
   viewBox="0 0 200 200"
   y="0px"
   x="0px"
   version="1.1"><metadata
   id="metadata32"><rdf:RDF><cc:Work
       rdf:about=""><dc:format>image/svg+xml</dc:format><dc:type
         rdf:resource="http://purl.org/dc/dcmitype/StillImage" /><dc:title></dc:title></cc:Work></rdf:RDF></metadata><defs
   id="defs30" />





<path
   style="display:inline;opacity:1;fill:#231f20;stroke-width:0.99459904"
   d="m 100.61469,0.75652066 c -7.44557,0 -12.101296,7.63254254 -14.460494,9.84669834 -3.464156,3.251201 -6.653852,4.513377 -11.13749,8.706654 -4.840735,4.526357 -4.661706,12.664145 -5.71599,16.028987 -1.054264,3.362677 -2.512339,4.724312 -5.779592,17.49885 -3.266279,12.77471 -1.588365,15.606352 -5.396702,20.797153 -3.808325,5.190801 -5.45239,6.291771 -7.286431,4.701454 -1.236287,-1.071167 -2.305503,-2.938034 -3.310041,-4.912389 1.052301,-0.430651 2.468608,-0.879221 4.71441,-1.212301 3.80037,-0.563927 3.550723,-2.862528 -0.476417,-4.945269 -3.567638,-1.845871 -6.52855,-2.339219 -4.461769,-7.365883 1.588376,-3.861135 3.218535,-6.797162 5.39868,-10.468212 1.879804,-3.162874 -0.135269,-4.078857 -2.97087,-2.000131 -3.058382,2.241793 -3.730728,2.993785 -4.704473,3.841222 -1.907619,1.658864 -2.808731,0.501218 -2.695348,-2.450721 0.124456,-3.269252 0.376977,-6.155576 0.496305,-11.100845 0.07057,-2.945918 -0.0092,-9.67345 -0.641518,-12.122151 -0.824508,-3.203479 -3.357751,-2.530241 -3.725753,0.711228 -0.402806,3.552616 -1.59138,13.808045 -2.093643,15.786242 -0.345117,1.35469 -1.832032,2.635709 -2.845552,-0.446562 -0.868271,-2.642641 -1.610247,-5.276329 -2.786871,-7.98168 -0.566916,-1.300932 -3.386584,-1.786264 -3.344815,0.952891 0.02086,1.364566 0.756882,2.788726 1.465036,5.507045 0.868271,3.325927 0.279472,4.882427 0.289433,10.169729 0.0092,5.286377 -1.707723,12.009882 -1.507805,14.822549 0.201901,2.813737 0.625607,8.746494 7.163095,16.762915 2.562075,3.142948 6.409204,10.923742 9.382053,17.245462 -0.123374,0.34713 -0.251634,0.710158 -0.384921,1.106994 -3.651167,10.83511 -4.560218,11.88436 -3.719785,20.18428 0.801625,7.92409 4.087811,22.38545 6.695637,29.07824 -1.181589,0.0927 -2.210981,0.26543 -3.039488,0.53705 -2.025025,0.66229 -4.156454,1.40238 -6.005406,2.44468 -2.95596,-3.5248 -6.370405,-7.0626 -8.022438,-8.40338 -2.12644,-1.72465 -4.02712,-2.80076 -5.614523,-1.43126 -1.084105,0.93792 -0.497271,2.80278 0.866304,4.67567 1.066224,1.46399 3.417465,4.32158 4.886483,6.42811 1.277051,1.82903 1.910601,3.03655 2.984786,4.75319 -0.264557,1.23331 -0.285438,2.65067 0.01388,4.29858 0.153176,0.8465 0.363015,1.68389 0.601724,2.51542 -2.436757,0.10814 -5.569776,0.29539 -4.470733,2.5571 1.297961,2.67446 5.3768,5.70205 8.615227,9.71126 3.237425,4.01016 11.731298,11.88637 16.253742,15.80509 4.521434,3.91781 8.126875,5.31911 11.468725,5.63351 3.341836,0.31422 12.201747,0.41862 16.238826,0.12967 4.037064,-0.28953 7.103423,-1.24535 11.009191,-3.36887 3.904803,-2.12443 6.217269,-1.30278 8.052301,-1.43404 1.83503,0.13126 4.14648,-0.68931 8.05227,1.43404 3.90479,2.12352 6.97216,3.08042 11.00919,3.36887 4.03712,0.28937 12.897,0.18575 16.23884,-0.12967 3.34284,-0.3144 6.94727,-1.7157 11.46872,-5.63351 4.52246,-3.91872 13.01633,-11.79493 16.25475,-15.80509 3.2374,-4.00921 7.31725,-7.03774 8.6162,-9.71126 1.09804,-2.26171 -2.03495,-2.44979 -4.47173,-2.5571 0.23971,-0.83045 0.44955,-1.66892 0.60274,-2.51542 0.29938,-1.64791 0.2785,-3.06527 0.0139,-4.29858 1.07418,-1.71771 1.70876,-2.92416 2.9858,-4.75319 1.46902,-2.10653 3.81925,-4.96412 4.88647,-6.42811 1.3646,-1.87289 1.9504,-3.73775 0.86631,-4.67567 -1.58641,-1.3695 -3.48708,-0.29339 -5.61454,1.43126 -1.65202,1.34078 -5.06647,4.87858 -8.02241,8.40338 -1.84895,-1.0423 -3.98041,-1.78239 -6.0054,-2.44468 -0.82951,-0.27162 -1.85892,-0.44364 -3.03949,-0.53705 2.60783,-6.69279 5.89398,-21.15523 6.69564,-29.07824 0.84044,-8.30086 -0.0685,-9.35009 -3.7198,-20.18428 -0.13341,-0.395911 -0.2606,-0.759864 -0.38393,-1.106994 2.97189,-6.32172 6.81997,-14.102514 9.38105,-17.245462 6.53852,-8.016421 6.9622,-13.949178 7.16311,-16.762915 0.20191,-2.812667 -1.51675,-9.535247 -1.5078,-14.822549 0.009,-5.287302 -0.57885,-6.843802 0.28841,-10.169729 0.70818,-2.718319 1.44418,-4.142479 1.4651,-5.507045 0.0417,-2.739155 -2.77694,-2.253823 -3.34487,-0.952891 -1.17761,2.705351 -1.91859,5.339039 -2.78787,7.98168 -1.01348,3.082271 -2.50042,1.801252 -2.84455,0.446562 -0.50426,-1.977273 -1.69183,-12.233626 -2.09463,-15.786242 -0.367,-3.241469 -2.90123,-3.914707 -3.72576,-0.711228 -0.63057,2.448701 -0.71212,9.177158 -0.6415,12.122151 0.12043,4.946193 0.37197,7.831593 0.49629,11.100845 0.11237,2.951939 -0.78771,4.109585 -2.69535,2.450721 -0.97273,-0.847437 -1.64609,-1.599429 -4.70447,-3.841222 -2.83659,-2.078726 -4.84965,-1.162743 -2.97086,2.000131 2.18015,3.67105 3.81031,6.607077 5.39867,10.468212 2.06778,5.026664 -0.89314,5.520012 -4.46174,7.365883 -4.02715,2.081803 -4.27579,4.380272 -0.47644,4.945269 2.2468,0.33308 3.6621,0.78272 4.7154,1.212301 -1.00455,1.974355 -2.07376,3.841222 -3.31003,4.912389 -1.83503,1.590317 -3.47811,0.489347 -7.28643,-4.701454 -3.8083,-5.190801 -2.13043,-8.021519 -5.39669,-20.797153 -3.26724,-12.774538 -4.72534,-14.135248 -5.77962,-17.49885 -1.05527,-3.363759 -0.87623,-11.50156 -5.71595,-16.028987 -4.48367,-4.194202 -7.67334,-5.455453 -11.13854,-8.706654 -2.35617,-2.2141558 -7.0109,-9.84669834 -14.45647,-9.84669834 z"
   id="bufonidae_1_" />
</svg>