<?xml version="1.0" encoding="UTF-8" standalone="no"?>
<svg
   xmlns:dc="http://purl.org/dc/elements/1.1/"
   xmlns:cc="http://creativecommons.org/ns#"
   xmlns:rdf="http://www.w3.org/1999/02/22-rdf-syntax-ns#"
   xmlns:svg="http://www.w3.org/2000/svg"
   xmlns="http://www.w3.org/2000/svg"
   height="200mm"
   width="200mm"
   id="svg26"
   xml:space="preserve"
   enable-background="new 0 0 200 200"
   viewBox="0 0 200 200"
   y="0px"
   x="0px"
   version="1.1"><metadata
   id="metadata32"><rdf:RDF><cc:Work
       rdf:about=""><dc:format>image/svg+xml</dc:format><dc:type
         rdf:resource="http://purl.org/dc/dcmitype/StillImage" /><dc:title></dc:title></cc:Work></rdf:RDF></metadata><defs
   id="defs30" />






<path
   style="display:inline;fill:#231f20;stroke-width:1.00716412"
   id="dendrobatidae_1_"
   d="m 100.15635,0.01737897 c 11.34471,0 15.93437,14.46989403 21.24816,18.41193803 2.37087,1.758537 6.54557,5.679416 7.8005,9.999151 1.36367,4.698417 -0.008,9.576124 -1.38489,13.015581 -1.01015,2.524959 -0.0464,13.297574 0.69798,22.596729 0.0697,0.865165 0.18044,1.864247 0.31024,2.92077 7.38051,0.248571 18.85111,1.249899 20.87047,1.431169 3.57745,0.320136 4.6934,-0.16711 4.6934,-0.16711 0,0 -0.97697,-3.55731 -0.41801,-8.647502 0.47743,-4.357002 0.45424,-6.195059 0.0114,-8.73414 -0.15112,-0.857096 -0.31404,-1.339507 -1.28914,-1.819938 -2.60756,-1.282103 -7.17001,-1.999229 -10.97007,0.0906 -2.37589,1.307302 -4.93004,3.257198 -6.06613,0.652642 -0.73322,-1.681948 -0.5207,-3.008397 2.97517,-3.593549 2.66497,-0.445144 5.33595,-2.097934 7.08843,-2.734436 2.16135,-0.786597 3.17254,-2.602538 1.49866,-3.904777 -1.67391,-1.302278 -6.5214,-3.807099 -8.85801,-3.526096 -2.40714,0.290064 -2.70326,-1.518797 -2.03044,-3.64391 0.52775,-1.664857 3.62579,-1.31031 4.7538,-0.205557 2.2188,2.173457 5.04086,3.182664 7.61215,3.289402 2.22987,0.0925 2.23189,-3.068809 1.76756,-5.39335 -0.51165,-2.559219 -4.89983,-9.73425 -6.38844,-10.850194 -1.48857,-1.115945 -2.56222,-2.824082 -1.70208,-4.679269 0.9427,-2.032461 4.2774,-0.97293 4.9935,1.468436 0.56502,1.922678 7.07633,11.586429 8.18321,12.866514 0.68789,0.794667 3.18868,0.730221 3.71441,-0.250855 0.79162,-1.477496 2.13018,-2.820047 1.62458,-5.563581 -0.49653,-2.688111 1.01119,-3.610679 2.40711,-3.03257 2.07273,0.859112 0.61237,4.868647 0.40989,6.354213 -0.43406,3.177601 -1.96295,6.229318 -1.43318,10.291194 0.56201,4.311664 2.36481,6.510321 3.1615,10.227775 0.89938,4.197848 2.62465,18.657693 2.10497,24.410615 -0.61739,6.833617 -1.36169,8.878144 -6.01074,9.2518 -3.91083,0.314045 -21.41836,1.75751 -30.14043,2.138247 1.48359,8.049256 3.11921,16.191165 3.88365,20.690149 1.74643,10.2781 -2.67304,26.22252 -8.49543,34.20733 6.12757,-2.84422 11.22686,-3.88666 17.84091,-3.94707 9.47137,-0.0845 16.05923,2.53501 19.59941,4.37208 4.35194,2.25907 5.89693,8.21747 3.56736,13.09618 l 1.46242,-1.65176 c 0,0 10.80988,-13.83543 11.36786,-16.08745 0.31709,-1.27807 0.56703,-2.99428 1.4644,-4.11426 1.0223,-1.27506 3.69126,-2.93287 5.11741,-1.09478 1.11796,1.44328 1.33147,4.67326 9.9e-4,5.73682 -1.00011,0.79966 -2.22584,1.17331 -3.44449,2.26208 -1.94985,1.73935 -8.75024,13.25934 -12.83225,18.96997 0,0 -5.18791,5.92109 -4.9291,6.97461 0.12981,0.53178 0.0826,1.67589 1.86025,1.35763 0.59022,-0.10583 5.3007,-1.70613 6.30888,-3.60262 1.24483,-2.34265 4.49899,-2.82108 5.26849,-0.68385 0.62744,1.74339 -1.25595,3.76575 -3.24007,4.28848 -2.10193,0.55497 -4.97439,2.04658 -5.89593,2.47562 -2.78986,1.30126 -7.83472,3.88362 -10.99622,8.5327 -3.1615,4.64909 -14.31987,10.97303 -18.78262,15.06414 -4.46374,4.09111 -23.79928,10.04042 -27.33946,10.04244 -8.36851,0.004 -8.36851,-2.79086 -7.81054,-6.5093 0.55793,-3.71947 4.65007,-10.59937 7.81054,-13.01759 2.15835,-1.64975 5.87279,-5.98155 9.25687,-9.16014 -1.84415,0.19832 -4.19888,0.41191 -7.21131,0.60528 -8.74119,0.55797 -11.70025,0.24781 -15.04804,0.24781 -3.347821,0 -6.346131,0.311 -15.087314,-0.24781 -3.012433,-0.19223 -5.367161,-0.40589 -7.211308,-0.60528 3.384071,3.17859 7.099508,7.51039 9.256863,9.16014 3.1615,2.41822 7.252572,9.29812 7.810544,13.01759 0.557972,3.71844 0.557972,6.51436 -7.810544,6.5093 -3.54018,-0.002 -22.875715,-5.95232 -27.339492,-10.04244 -4.463549,-4.09111 -15.621926,-10.41506 -18.782397,-15.06415 -3.1615,-4.64908 -8.207383,-7.23144 -10.996254,-8.53269 -0.92253,-0.42904 -3.794994,-1.92168 -5.895936,-2.47562 -1.985106,-0.52273 -3.86751,-2.5451 -3.240029,-4.28849 0.769467,-2.13722 4.023619,-1.6588 5.268455,0.68386 1.008179,1.89649 5.717672,3.49686 6.308876,3.60261 1.777647,0.31823 1.729303,-0.82584 1.86025,-1.35762 0.259991,-1.05249 -4.928069,-6.97462 -4.928069,-6.97462 -4.082012,-5.70964 -10.883387,-17.23061 -12.832255,-18.96996 -1.218684,-1.08877 -2.444411,-1.46242 -3.44452,-2.26208 -1.330447,-1.06356 -1.116934,-4.29354 10e-4,-5.73682 1.425117,-1.83809 4.095108,-0.18043 5.117372,1.09478 0.898396,1.11998 1.147196,2.83619 1.464438,4.11426 0.557973,2.25202 11.367855,16.08745 11.367855,16.08745 l 1.462421,1.65175 c -2.329604,-4.8787 -0.784579,-10.8371 3.56835,-13.09617 3.540218,-1.83707 10.128043,-4.4567 19.599446,-4.37208 6.613024,0.0605 11.713304,1.10285 17.84091,3.94707 -5.822431,-7.98481 -10.241861,-23.92923 -8.495429,-34.20733 0.764405,-4.498984 2.400065,-12.640893 3.883613,-20.690149 -8.722036,-0.380737 -26.229601,-1.825001 -30.140392,-2.138247 -4.650073,-0.372666 -5.393388,-2.418183 -6.010782,-9.2518 -0.519677,-5.753912 1.206618,-20.212767 2.104977,-24.410615 0.796684,-3.717454 2.599492,-5.916111 3.161499,-10.227775 0.529765,-4.060886 -0.999119,-7.113593 -1.433186,-10.291194 -0.202512,-1.485566 -1.66284,-5.495101 0.409895,-6.354213 1.395958,-0.578109 2.903678,0.344497 2.407144,3.03257 -0.505593,2.744523 0.833913,4.086085 1.624545,5.563581 0.524741,0.981 3.026517,1.045446 3.714409,0.250855 1.105895,-1.280085 7.618196,-10.943836 8.18321,-12.866514 0.717127,-2.440339 4.050837,-3.499907 4.993543,-1.468436 0.860102,1.855187 -0.213551,3.563324 -1.702124,4.679269 -1.488572,1.115944 -5.876788,8.290975 -6.388434,10.850194 -0.464292,2.324541 -0.463302,5.486002 1.767559,5.39335 2.571323,-0.106585 5.393388,-1.115945 7.612143,-3.289402 1.12805,-1.104829 4.226093,-1.460366 4.753841,0.205557 0.672779,2.125113 0.376854,3.933974 -2.030443,3.64391 -2.337636,-0.280927 -7.185119,2.223818 -8.858008,3.526096 -1.673916,1.302239 -0.663719,3.11818 1.498661,3.904777 1.752446,0.63753 4.423465,2.289292 7.088431,2.734436 3.495833,0.585152 3.708356,1.911601 2.975128,3.593549 -1.135054,2.604556 -3.690237,0.65466 -6.066129,-0.652642 -3.79903,-2.089864 -8.362502,-1.372738 -10.970026,-0.0906 -0.975938,0.480431 -1.139127,0.962842 -1.289183,1.819938 -0.444155,2.539081 -0.467337,4.378166 0.01142,8.73414 0.557972,5.09122 -0.418993,8.647502 -0.418993,8.647502 0,0 1.115944,0.487474 4.693391,0.16711 2.019366,-0.181194 13.48996,-1.182407 20.870472,-1.431169 0.129805,-1.056523 0.240578,-2.055605 0.310238,-2.92077 0.744268,-9.298127 1.708138,-20.07177 0.697941,-22.596729 -1.376772,-3.439457 -2.74852,-8.317164 -1.383815,-13.015581 1.254924,-4.319735 5.429627,-8.240614 7.800495,-9.999151 C 84.21772,14.487273 88.807381,0.01737897 100.15307,0.01737897" /></svg>