<?xml version="1.0" encoding="UTF-8" standalone="no"?>
<!-- Created with Inkscape (http://www.inkscape.org/) -->

<svg
   xmlns:svg="http://www.w3.org/2000/svg"
   xmlns="http://www.w3.org/2000/svg"
   version="1.1"
   width="200"
   height="200"
   viewBox="0 0 200 200"
   id="svg2"
   xml:space="preserve"><defs
   id="defs13" />
<g
   id="hand">
	<path
   d="m 100.559,199.168 c 9.307,-0.723 30.588,3.548 40.166,-8.5 4.425,-5.568 8.65,-21.935 11.739,-32.748 3.09,-10.813 5.252,-31.203 7.106,-37.69 1.854,-6.488 18.227,-29.349 21.935,-34.91 3.707,-5.561 9.586,-14.796 9.609,-20.699 0.032,-8.341 -7.901,-10.228 -11.851,-6.646 -2.976,2.698 -9.807,13.133 -12.278,17.458 -2.472,4.325 -17.918,25.333 -21.935,28.422 -4.017,3.089 -5.561,0.927 -6.179,-3.708 -0.618,-4.634 5.87,-19.772 8.341,-29.967 2.472,-10.195 3.398,-13.593 3.398,-13.593 0,0 0,0 1.854,-9.268 1.854,-9.269 3.255,-15.588 4.635,-21.935 1.545,-7.105 -11.431,-13.593 -15.708,-4.004 -3.201,7.175 -7.033,22.541 -7.033,22.541 -2.042,6.488 -4.754,14.52 -6.608,20.081 -1.854,5.561 -6.936,24.206 -7.724,26.568 -1.235,3.708 -8.341,2.163 -8.959,-2.163 -0.309,-2.162 -0.309,-20.081 -0.927,-28.422 -0.618,-8.342 -2.163,-16.683 -3.089,-25.951 -0.926,-9.268 0.622,-20.661 0,-26.877 -0.927,-9.268 -15.138,-9.268 -16.992,0 -0.824,4.12 -1.545,20.081 -1.442,25.024 0.103,4.943 -0.412,18.536 -0.412,27.805 0,9.268 0.723,25.771 0.375,27.814 -0.684,4.006 -5.009,4.933 -7.48,3.08 C 78.629,89.026 73.995,67.092 71.214,60.604 68.433,54.117 62.726,33.472 60.4,26.93 55.457,13.028 39.701,20.442 41.878,30.636 c 1.163,5.447 5.488,25.833 7.092,33.367 1.604,7.533 11.74,32.748 11.74,38.617 0,5.869 0.121,12.62 0.323,17.412 0.294,6.995 -3.413,14.409 -3.413,14.409 0,0 -5.561,-4.017 -12.357,-15.138 -6.797,-11.122 -14.521,-20.488 -25.951,-20.39 -8.392,0.072 -11.74,4.943 -7.415,8.959 4.325,4.016 14.211,25.024 14.211,25.024 0,0 9.268,11.74 12.357,23.633 2.611,10.051 18.026,27.879 25.024,33.817 14.212,12.061 24.407,9.806 37.07,8.822 z"
   id="hand_1_"
   style="fill:#231f20" />
</g>
<g
   id="odontophrynidae">
</g>
<g
   id="dendrobatidae">
</g>
<g
   id="hylidae">
</g>
<g
   id="leptodactylidae">
</g>
<g
   id="bufonidae">
</g>
</svg>