<?xml version="1.0" encoding="UTF-8" standalone="no"?>
<svg
   xmlns:dc="http://purl.org/dc/elements/1.1/"
   xmlns:cc="http://creativecommons.org/ns#"
   xmlns:rdf="http://www.w3.org/1999/02/22-rdf-syntax-ns#"
   xmlns:svg="http://www.w3.org/2000/svg"
   xmlns="http://www.w3.org/2000/svg"
   height="200mm"
   width="200mm"
   id="svg26"
   xml:space="preserve"
   enable-background="new 0 0 200 200"
   viewBox="0 0 200 200"
   y="0px"
   x="0px"
   version="1.1"><metadata
   id="metadata32"><rdf:RDF><cc:Work
       rdf:about=""><dc:format>image/svg+xml</dc:format><dc:type
         rdf:resource="http://purl.org/dc/dcmitype/StillImage" /><dc:title></dc:title></cc:Work></rdf:RDF></metadata><defs
   id="defs30" />






<path
   style="fill:#231f20;stroke-width:1.00078547"
   id="hylidae_1_"
   d="m 100.0424,179.28353 c 4.27233,0 7.90519,-0.60444 10.9866,-1.5512 -1.1599,6.86939 -1.82842,13.6157 -2.21472,15.61724 -0.6335,3.27659 6.42101,7.37579 11.55404,6.22191 5.30621,-1.19194 44.73314,-43.04081 61.05994,-70.79959 4.33043,-7.36176 6.62421,-10.42116 8.03232,-12.59288 1.40709,-2.17168 3.60582,-3.6809 5.37323,-5.72349 1.57624,-1.82044 0.0882,-3.31259 -0.95176,-4.29336 -1.12389,-1.05883 -3.62083,0.46037 -3.71391,1.65031 -0.14601,1.86546 -0.25532,2.08061 -2.21273,2.8512 -1.17995,0.46537 -2.77821,0.66153 -3.9411,-0.17512 -1.46916,-1.05683 -2.59804,-3.27459 -2.28579,-5.84559 0.29806,-2.46196 4.43546,-10.471238 5.22408,-11.936388 0.37832,-0.702523 1.80141,-2.133669 1.33405,-4.056161 -0.37636,-1.544203 -2.49494,-3.292587 -4.67165,-2.089639 -1.5172,0.837633 -1.8905,1.988571 -1.48917,3.895063 0.25229,1.199922 -3.17049,8.466627 -5.74153,12.354695 -2.31482,3.50073 -4.68466,4.75872 -5.84357,5.11401 -2.02958,0.61951 -3.1885,-1.11187 -3.55079,-1.78943 -0.89672,-1.6713 -1.07884,-2.95431 -0.50141,-4.31737 1.19894,-2.832224 -0.37828,-5.30817 -2.11166,-5.346185 -1.73234,-0.03896 -4.07919,2.231749 -3.3076,4.212305 0.8617,2.20973 0.90772,7.08356 -1.47615,11.81928 -0.74758,-3.81401 -1.91848,-7.90322 -3.54575,-12.20858 -1.75641,-4.649669 -10.62738,-9.849732 -16.48995,-5.789562 -2.84424,1.970567 -7.31576,5.773522 -12.24764,11.068682 0.52341,-8.23147 0.25228,-20.213851 0.25228,-26.619887 0,-0.927734 0.0571,-1.89348 0.15509,-2.875265 2.68815,1.834435 5.73052,3.835036 8.36858,5.249122 4.70271,2.52198 10.52628,3.740926 15.98158,4.451506 4.10522,0.53443 4.51955,1.001795 7.09056,-2.225734 1.56322,-1.962548 4.26234,-8.753907 5.7315,-13.205377 1.46916,-4.451506 2.1727,-5.490331 3.05538,-10.831519 0.88171,-5.342171 0.73359,-11.227811 0.37931,-13.502605 -0.59646,-3.830984 -1.34804,-6.918408 -2.98635,-10.829468 -0.93372,-2.230766 -2.22774,-4.169296 -3.75492,-6.753311 -2.20675,-3.732942 -5.07199,-10.32111 -5.86964,-12.143517 -0.59745,-1.366083 -1.22394,-2.16771 -1.50616,-3.955126 -0.26439,-1.674322 -0.88272,-2.6831177 -2.10768,-3.1855086 -1.74037,-0.7145513 -3.28355,0.01513 -3.72493,2.0175846 -0.26326,1.193944 0.60248,2.721165 1.26801,3.227527 0.89369,0.679564 2.53499,2.615067 4.21532,6.817387 0.71157,1.777396 1.82544,5.450275 2.29579,6.812352 0.31509,0.913696 0.22923,1.34804 -0.56241,0.839635 -0.79066,-0.507384 -1.57228,-1.216939 -2.16571,-2.060628 -1.20094,-1.709307 -5.05296,-6.848361 -6.61619,-8.720849 -1.20496,-1.444119 -3.08341,-3.505732 -3.89106,-4.929841 -0.55145,-0.971757 -0.94074,-2.964343 -1.93252,-4.0031676 -0.95878,-1.0047823 -3.33366,-1.0458224 -4.60764,0.5174079 -0.83268,1.0218037 -0.90875,2.7331597 -0.4904,3.5688267 0.75858,1.519161 2.29681,1.708323 3.65086,2.439896 1.32104,0.714551 3.01238,2.893269 4.18735,4.376424 1.1759,1.484176 3.21651,4.464519 5.21708,7.344776 1.59424,2.295824 2.35184,2.912299 3.12245,5.082998 0.25305,0.711564 0.11612,1.465151 -1.62531,0.488392 -1.14889,-0.644495 -5.98368,-4.134264 -7.45284,-5.024967 -1.46916,-0.88968 -2.12769,-1.582222 -2.86225,-2.919296 -1.10989,-2.018567 -3.74797,-2.002564 -4.77676,-0.81562 -1.0288,1.185929 -0.69655,2.212723 0,3.337599 1.10286,1.780425 2.13067,1.187931 3.30658,1.854486 1.74237,0.988779 5.73154,3.858033 7.2007,5.490291 1.47015,1.632298 3.15948,3.33862 4.04118,5.638415 0.5224,1.363099 0.14714,1.780422 -1.32304,1.335071 -1.47018,-0.445351 -2.19472,-0.479394 -3.81102,-0.627517 -1.61724,-0.148274 -3.94412,-1.289982 -5.27515,-2.658073 -1.56825,-1.611265 -3.37564,-0.280283 -3.71694,0.667534 -0.56942,1.579231 -0.42231,2.617034 2.14869,3.434696 2.13968,0.679526 3.30666,0.741559 5.51136,1.854445 1.70935,0.863696 5.7315,3.561788 7.34776,4.155262 1.61631,0.592452 3.96815,0.147139 4.55561,1.928506 0.80862,2.447918 0.22316,6.672248 -0.58746,10.088939 -0.72761,3.061402 -4.11525,10.163985 -5.58441,11.276833 -0.48438,0.368415 -2.9393,-0.555422 -5.69447,-2.670102 -2.16968,-1.664298 -7.5089,-5.73748 -11.88634,-8.853916 0.14903,-0.410326 0.23905,-0.642533 0.23905,-0.642533 1.46916,-3.560768 0.88268,-10.682376 0.58845,-13.501585 -0.29315,-2.819207 -0.29429,-4.155261 -0.58845,-7.716065 -0.29314,-3.561788 -0.8817,-10.089924 -2.79118,-13.205376 -1.9105,-3.115416 -7.93625,-7.716024 -10.36116,-9.607541 -2.42489,-1.892459 -9.3133,-9.7926574 -10.9666,-11.5740619 -1.65329,-1.7793999 -5.51132,-4.11724752 -7.66001,-4.11724752 -2.148678,0 -6.006698,2.33682642 -7.659989,4.11724752 -1.653292,1.7814045 -8.54171,9.6816029 -10.966592,11.5740619 -2.424921,1.891517 -8.450665,6.492125 -10.361166,9.607541 -1.910501,3.115452 -2.497961,9.643588 -2.792164,13.205376 -0.294278,3.561788 -0.294278,4.897841 -0.58746,7.716065 -0.294277,2.819209 -0.881699,9.940817 0.58746,13.501585 0,0 0.09002,0.232244 0.239054,0.642533 -4.376462,3.115415 -9.717649,7.189618 -11.886344,8.853916 -2.755171,2.11468 -5.210087,3.038404 -5.694473,2.670102 -1.46916,-1.111865 -4.856805,-8.214448 -5.584376,-11.276833 -0.810634,-3.416691 -1.396093,-7.641021 -0.587463,-10.088939 0.587463,-1.781405 2.93931,-1.336054 4.555578,-1.928506 1.617283,-0.593474 5.639438,-3.291566 7.347765,-4.155262 2.204741,-1.112886 3.371642,-1.173935 5.511324,-1.854445 2.572022,-0.81664 2.718141,-1.855465 2.148685,-3.434696 -0.341181,-0.947742 -2.148685,-2.278799 -3.716907,-0.667534 -1.331062,1.368091 -3.657865,2.509988 -5.275146,2.658073 -1.617282,0.148274 -2.340836,0.182317 -3.810979,0.627517 -1.470181,0.445351 -1.84548,0.02648 -1.323041,-1.335071 0.881699,-2.299795 2.572022,-4.006117 4.042165,-5.638415 1.470143,-1.631277 5.458293,-4.501512 7.200662,-5.490291 1.175903,-0.667535 2.204704,-0.07413 3.307566,-1.854486 0.696547,-1.124876 1.028839,-2.15167 0,-3.337599 -1.028801,-1.186944 -3.666865,-1.202947 -4.776726,0.81562 -0.734598,1.337074 -1.393093,2.029616 -2.862252,2.919296 -1.470143,0.890703 -6.303946,4.380472 -7.452842,5.024967 -1.741386,0.976759 -1.878502,0.223168 -1.626285,-0.488392 0.771591,-2.170699 1.528205,-2.787174 3.122451,-5.082998 2.001584,-2.880257 4.042165,-5.859579 5.218106,-7.344776 1.174919,-1.484135 2.867246,-3.662852 4.188283,-4.376424 1.353037,-0.731573 2.891264,-0.920735 3.649844,-2.439896 0.418344,-0.835667 0.342315,-2.547023 -0.490364,-3.5688267 -1.27402,-1.5632303 -3.64886,-1.5221902 -4.607609,-0.5174079 -0.991809,1.0388246 -1.381104,3.0314106 -1.932515,4.0031676 -0.807639,1.424109 -2.68614,3.485722 -3.891055,4.929841 -1.56323,1.872488 -5.416271,7.012522 -6.616214,8.720849 -0.593459,0.843689 -1.374072,1.553244 -2.165699,2.060628 -0.790617,0.508405 -0.877683,0.07301 -0.562439,-0.839635 0.470366,-1.362077 1.584246,-5.033974 2.295798,-6.812352 1.680321,-4.20232 3.321622,-6.137823 4.215312,-6.817387 0.665531,-0.505374 1.531193,-2.032561 1.268007,-3.227527 -0.441342,-2.0025679 -1.983579,-2.7311147 -3.724927,-2.0175846 -1.224968,0.5023909 -1.843457,1.5111866 -2.107663,3.1855086 -0.282213,1.787416 -0.909714,2.589043 -1.507181,3.955126 -0.796625,1.822407 -3.662876,8.410575 -5.868605,12.143517 -1.527198,2.584015 -2.821216,4.522545 -3.754948,6.753311 -1.638287,3.912042 -2.390879,6.998484 -2.986346,10.829472 -0.354268,2.274794 -0.501392,8.160434 0.379297,13.502605 0.881693,5.340204 1.585245,6.380013 3.055399,10.831519 1.470155,4.451469 4.168273,11.242829 5.7315,13.205377 2.572019,3.227528 2.985339,2.760163 7.090548,2.225734 5.455305,-0.71058 11.279858,-1.929527 15.981577,-4.451507 2.638064,-1.414085 5.680439,-3.413665 8.368546,-5.249122 0.09797,0.980764 0.155082,1.946549 0.155082,2.875266 0,6.406036 -0.271204,18.389439 0.252293,26.619883 -4.931845,-5.29516 -9.403362,-9.097128 -12.24761,-11.068678 -5.862605,-4.06017 -14.733558,1.139892 -16.489938,5.789568 -1.62628,4.30535 -2.798196,8.39358 -3.545784,12.20857 -2.384871,-4.73571 -2.338835,-9.60954 -1.477159,-11.81927 0.771606,-1.980562 -1.575236,-4.251346 -3.307597,-4.212311 -1.733359,0.0382 -3.310596,2.513961 -2.111654,5.346191 0.577451,1.36408 0.39631,2.64607 -0.500395,4.31737 -0.362287,0.67653 -1.522193,2.40893 -3.550788,1.78943 -1.158907,-0.35518 -3.529768,-1.61426 -5.843586,-5.11402 -2.571016,-3.888064 -5.993702,-11.154769 -5.741504,-12.354692 0.401314,-1.906491 0.02799,-3.057429 -1.48917,-3.895062 -2.176709,-1.201965 -4.295372,0.546419 -4.671667,2.089639 -0.468367,1.922492 0.954748,3.353638 1.333047,4.05616 0.789618,1.464168 4.924864,9.474435 5.2241,11.936385 0.312246,2.571 -0.81664,4.78978 -2.285797,5.84559 -1.163912,0.83665 -2.761165,0.64049 -3.941092,0.17513 -1.957537,-0.7706 -2.065621,-0.98575 -2.2127377,-2.8512 -0.09407,-1.19096 -2.5900275,-2.70915 -3.7149113,-1.65032 -1.039816,0.98078 -2.5279825,2.47194 -0.9517481,4.29337 1.7673909,2.04361 3.9661107,3.5518 5.3732141,5.72348 1.409109,2.17172 3.70291,5.23011 8.033308,12.59288 16.326813,27.75878 55.753772,69.60765 61.059934,70.79959 5.132016,1.15291 12.187544,-2.94532 11.554052,-6.22191 -0.38729,-2.00154 -1.055808,-8.74785 -2.214727,-15.61724 3.084399,0.94573 6.71726,1.5512 10.988588,1.5512 z" /></svg>