<?xml version="1.0" encoding="UTF-8" standalone="no"?>
<svg
   xmlns:dc="http://purl.org/dc/elements/1.1/"
   xmlns:cc="http://creativecommons.org/ns#"
   xmlns:rdf="http://www.w3.org/1999/02/22-rdf-syntax-ns#"
   xmlns:svg="http://www.w3.org/2000/svg"
   xmlns="http://www.w3.org/2000/svg"
   height="200mm"
   width="200mm"
   id="svg26"
   xml:space="preserve"
   enable-background="new 0 0 200 200"
   viewBox="0 0 200 200"
   y="0px"
   x="0px"
   version="1.1"><metadata
   id="metadata32"><rdf:RDF><cc:Work
       rdf:about=""><dc:format>image/svg+xml</dc:format><dc:type
         rdf:resource="http://purl.org/dc/dcmitype/StillImage" /><dc:title></dc:title></cc:Work></rdf:RDF></metadata><defs
   id="defs30" />






<path
   style="fill:#231f20;stroke-width:1.00450325"
   id="leptodactylidae_1_"
   d="m 178.39419,150.37488 c -0.99545,0.81062 -2.59763,1.7348 -4.51022,2.72724 0.88899,-3.14813 0.13174,-6.57649 -1.76392,-9.4755 3.92962,-11.34386 8.42979,-22.95187 9.70853,-27.4832 1.26768,-4.49412 -2.51426,-5.43537 -4.29928,-0.81163 -0.93217,2.41581 -7.54882,16.9259 -10.81447,23.33662 -1.88042,-0.9081 -5.02754,-1.31892 -8.89686,-1.38722 -0.37283,-2.32542 -0.73532,-4.19982 -0.92013,-5.21339 -0.48619,-2.67697 -3.11397,-2.4138 -3.50873,-0.008 -0.15757,0.9603 -0.30525,2.90803 -0.42996,5.28969 -5.70155,0.2312 -12.23886,0.93923 -18.35127,1.77098 6.2631,-15.36189 4.18076,-32.62932 3.12001,-42.608055 -0.57255,-5.375076 -1.74683,-10.319245 -2.72824,-14.495979 6.15659,1.736806 17.6622,2.745323 22.19549,2.382676 5.40723,-0.431934 7.67942,-3.13705 8.43685,-7.246471 0.86287,-4.686003 0.32459,-13.735569 -0.10745,-19.143827 -0.43197,-5.407234 -0.88801,-10.12137 -2.21995,-16.461794 -1.04773,-4.986348 -2.24106,-11.405136 -2.95729,-14.119286 -1.44546,-5.479595 -2.63981,-8.241963 -4.06925,-12.302181 -1.31288,-3.727721 -4.38061,-2.920077 -3.40725,0.431932 0.71018,2.445961 1.4073,6.240004 1.62227,7.679431 0.59768,4.01401 -0.35764,4.485128 -2.21795,1.513796 -2.80959,-4.489112 -7.40821,-13.461344 -9.78787,-16.0609915 -1.15116,-1.2576442 -2.75839,-0.9181191 -2.27118,1.4062765 0.48919,2.332489 5.67546,12.974174 7.13899,16.872659 1.28277,3.421331 1.4244,5.293755 -0.43292,4.650844 -0.76945,-0.266138 -2.47709,-1.23452 -3.73071,-1.960762 -1.56502,-0.907071 -3.14313,-2.159704 -4.7865,-2.920114 -3.24454,-1.500739 -3.50069,1.2898 -2.05519,2.771439 2.19084,2.244066 4.76638,4.166675 6.23996,5.735709 1.46054,1.553969 1.89953,2.038143 2.38572,3.376121 0.5404,1.48669 -3.91056,3.304821 -7.38109,2.63583 -2.226,-0.428933 -2.45402,1.377156 -0.97341,2.514265 1.95477,1.500737 3.77196,2.231003 6.97632,2.447975 3.40827,0.230831 6.13749,2.161679 6.246,3.459528 0.42188,5.045612 -1.54998,12.902834 -2.59566,14.601447 -0.71117,1.156163 -6.97726,-3.387203 -11.58794,-6.002911 0.0561,-1.007529 0.10247,-2.084343 0.12339,-3.298783 0.21602,-12.113303 -6.92202,-28.121071 -9.08574,-31.581583 -2.16267,-3.459889 -6.64176,-9.325175 -11.68034,-15.4295695 -4.7523,-5.7567815 -9.73364,-7.93155805 -13.84412,-7.93155805 -4.110409,0 -9.091747,2.17477655 -13.844037,7.93155805 C 82.28918,14.072345 77.811114,19.937631 75.64841,23.398146 c -2.162704,3.460515 -9.300708,19.468281 -9.084722,31.581583 0.02278,1.213414 0.0672,2.291255 0.123388,3.298783 -4.610679,2.615707 -10.876768,7.159074 -11.587936,6.002911 -1.045722,-1.698614 -3.016549,-9.554848 -2.595663,-14.601447 0.108582,-1.29785 2.836743,-3.228509 6.246005,-3.459529 3.204361,-0.217162 5.021504,-0.947238 6.976271,-2.447976 1.480653,-1.137103 1.252633,-2.944183 -0.97336,-2.514263 -3.470539,0.668003 -7.921497,-1.150164 -7.381096,-2.63583 0.486186,-1.339004 0.925143,-1.822153 2.385713,-3.376118 1.473592,-1.569037 4.049131,-3.491647 6.239968,-5.73571 1.445498,-1.481641 1.189344,-4.27218 -2.055224,-2.771442 -1.643373,0.759424 -3.221446,2.012018 -4.786459,2.920115 -1.25362,0.727229 -2.962256,1.694588 -3.730716,1.960764 -1.85731,0.642908 -1.715698,-1.229511 -0.432959,-4.650846 1.462584,-3.898485 6.649844,-14.54017 7.139028,-16.872657 0.486188,-2.324458 -1.120018,-2.6639832 -2.27117,-1.4063388 -2.379675,2.5996478 -6.978282,11.5718778 -9.787879,16.0609918 -1.85936,2.970305 -2.815634,2.499192 -2.216957,-1.513796 0.214884,-1.439424 0.912083,-5.233467 1.622266,-7.679431 0.973358,-3.352009 -2.094366,-4.160637 -3.407252,-0.431933 -1.428412,4.060218 -2.623793,6.822587 -4.069254,12.302182 -0.716218,2.714152 -1.909549,9.132937 -2.957245,14.119286 -1.333006,6.340424 -1.788022,11.053535 -2.219956,16.461793 -0.432958,5.407234 -0.970359,14.457825 -0.107441,19.143828 0.756385,4.110407 3.028543,6.814537 8.435816,7.246471 4.533307,0.36257 16.038896,-0.646895 22.195492,-2.382676 -0.981408,4.176734 -2.155679,9.120903 -2.728236,14.495979 -1.061744,9.97873 -3.144074,27.24616 3.118977,42.60805 -6.112404,-0.83174 -12.649717,-1.53993 -18.35126,-1.77097 -0.124527,-2.38065 -0.272213,-4.32939 -0.42992,-5.2897 -0.394766,-2.40678 -3.022546,-2.66996 -3.508733,0.008 -0.184891,1.01356 -0.547461,2.88795 -0.920131,5.21339 -3.869329,0.0672 -7.016439,0.47911 -8.896869,1.38721 -3.265639,-6.41073 -9.882338,-20.92178 -10.814505,-23.33662 -1.783997,-4.62373 -5.566954,-3.68249 -4.299287,0.81163 1.278754,4.53133 5.777929,16.13935 9.708533,27.48321 -1.89649,2.89899 -2.6539,6.32736 -1.763915,9.4755 -1.911561,-0.99245 -3.51473,-1.91662 -4.509198,-2.72724 -2.920076,-2.37969 -6.285185,-1.57405 -2.704128,2.9201 5.083805,6.38158 11.708477,12.76221 17.142856,21.36076 4.423851,6.99939 12.32929,19.30555 22.874544,21.73944 10.545292,2.43392 14.601485,4.54238 22.388394,3.08284 7.78691,-1.46058 8.935024,-6.74929 6.327365,-11.68039 -1.056769,-1.99995 -1.548954,-3.49767 -1.978875,-4.96122 6.66184,0.66398 11.28057,0.42491 13.17303,-0.0683 1.89253,0.4942 6.51124,0.73326 13.17312,0.0683 -0.42893,1.46355 -0.92215,2.96127 -1.97888,4.96122 -2.6077,4.9311 -1.46057,10.22084 6.32736,11.68039 7.78692,1.45954 11.84311,-0.64892 22.38836,-3.08284 10.54529,-2.4329 18.45072,-14.73907 22.87458,-21.73944 5.43435,-8.59855 12.05905,-14.97918 17.14286,-21.36076 3.57599,-4.49415 0.21108,-5.29979 -2.70917,-2.9201 z" /></svg>